<?xml version="1.0" encoding="UTF-8"?>
<svg version="1.1" xmlns="http://www.w3.org/2000/svg" width="474" height="474">
<path d="M0 0 C1.08539063 -0.01546875 2.17078125 -0.0309375 3.2890625 -0.046875 C15.22075307 0.01007818 24.76291555 3.8822222 34.875 9.9375 C35.77081787 10.46190674 36.66663574 10.98631348 37.58959961 11.52661133 C39.4671674 12.62791948 41.3417499 13.73433222 43.21337891 14.84570312 C45.88968947 16.43451339 48.57413223 18.00848202 51.26171875 19.578125 C59.25501455 24.25925713 67.20654707 29.00737257 75.12109375 33.8203125 C76.03889366 34.37840355 76.03889366 34.37840355 76.97523499 34.94776917 C79.96308034 36.76573055 82.9489665 38.58680739 85.93188477 40.4128418 C92.18195915 44.22739627 98.47353936 47.94503342 104.84036255 51.55957031 C110.72901686 54.90429889 116.55488558 58.35029189 122.375 61.8125 C124.11586393 62.84660557 125.8567291 63.88070906 127.59764099 64.91473389 C128.81776167 65.63954266 130.03778219 66.36452004 131.25770569 67.08966064 C135.93499113 69.86949882 140.61725052 72.64085619 145.30078125 75.41015625 C153.21128201 80.08879126 161.11017656 84.78658437 169 89.5 C169.93134766 90.05510254 170.86269531 90.61020508 171.82226562 91.18212891 C189.16137981 101.55995604 200.62060172 112.63077508 207.25 132.1875 C208.71135581 138.64182148 209.14822178 144.96187641 209.13371277 151.56318665 C209.13597833 152.33405222 209.13824388 153.10491779 209.14057809 153.89914292 C209.14686568 156.4605282 209.14609212 159.02185985 209.14526367 161.58325195 C209.14825843 163.42863025 209.15166169 165.27400791 209.15544128 167.11938477 C209.16425303 172.11742746 209.1666182 177.11545303 209.16725707 182.11350274 C209.16796915 185.24003479 209.17010646 188.36656252 209.17275429 191.49309349 C209.18199819 202.41165823 209.18609035 213.33021078 209.18530273 224.2487793 C209.18470212 234.40866347 209.1952532 244.56849451 209.2110464 254.72836524 C209.22414324 263.46663293 209.22948573 272.20488329 209.22884732 280.94316071 C209.22859298 286.15528018 209.23140915 291.36735241 209.24202538 296.57946205 C209.25174254 301.48376752 209.25176081 306.38798092 209.24450874 311.29228973 C209.24346741 313.08567884 209.24579881 314.87907379 209.2518692 316.67245293 C209.30847273 334.56249617 207.65374698 352.54407772 195 366.5 C194.31035156 366.83644531 193.62070312 367.17289062 192.91015625 367.51953125 C190.84850038 368.33351937 190.84850038 368.33351937 190.11572266 370.35888672 C186.11700084 378.03258263 175.32355959 382.44698851 168.0743103 386.60516357 C165.47772577 388.09464983 162.8897842 389.59888652 160.30110168 391.10205078 C159.0010724 391.85670969 157.70060935 392.61062185 156.39970398 393.36376953 C151.29878383 396.31800565 146.23334088 399.32758197 141.1875 402.375 C132.41710779 407.6609694 123.61807727 412.89793349 114.8125 418.125 C114.11298218 418.54027954 113.41346436 418.95555908 112.69274902 419.38342285 C104.29307583 424.36912668 95.88630101 429.34222381 87.4609375 434.28442383 C83.22961429 436.76890558 79.01659252 439.28224343 74.8125 441.8125 C65.830679 447.2163745 56.80875154 452.55184423 47.7734375 457.86572266 C45.08489148 459.4499768 42.40167792 461.04297497 39.71875 462.63671875 C38.06276071 463.61242178 36.40652262 464.58770271 34.75 465.5625 C34.01297852 466.00319824 33.27595703 466.44389648 32.51660156 466.89794922 C30.369402 468.15428939 28.20308203 469.3446026 26 470.5 C25.26434814 470.88776611 24.52869629 471.27553223 23.77075195 471.67504883 C16.87184977 474.88511822 10.2542511 475.14835633 2.71508789 475.07641602 C0.69963871 475.06258331 -1.31111452 475.09668077 -3.32617188 475.13476562 C-17.7729188 475.11346821 -28.21408348 469.82053312 -40.25 462.3125 C-42.44887595 460.96688759 -44.6480953 459.62183616 -46.84765625 458.27734375 C-48.43151123 457.3025708 -48.43151123 457.3025708 -50.04736328 456.30810547 C-53.89983675 453.94896717 -57.78644887 451.65259976 -61.6875 449.375 C-63.03788077 448.58353865 -64.38813976 447.79186947 -65.73828125 447 C-66.42229004 446.59910156 -67.10629883 446.19820313 -67.81103516 445.78515625 C-87.48390213 434.23508133 -107.08998387 422.57035355 -126.70703125 410.92578125 C-127.35952347 410.53857407 -128.01201569 410.15136688 -128.6842804 409.75242615 C-132.0235972 407.77044327 -135.36167852 405.78642838 -138.69750977 403.79858398 C-144.96687974 400.06504945 -151.24408765 396.34804877 -157.56028748 392.69413757 C-160.45377088 391.01894817 -163.3415106 389.33399088 -166.22891235 387.64834595 C-167.59147344 386.85651385 -168.956757 386.06934337 -170.32504272 385.28744507 C-188.38137052 374.96499796 -201.17577252 362.36111388 -207.04847145 341.8354969 C-208.10115247 337.53938744 -208.28583627 333.48474788 -208.26742554 329.07736206 C-208.27195665 328.26777766 -208.27648776 327.45819327 -208.28115618 326.62407601 C-208.29374085 323.93145365 -208.29218366 321.2390351 -208.29052734 318.54638672 C-208.29651642 316.60735313 -208.30332284 314.66832192 -208.31088257 312.72929382 C-208.32851405 307.47485007 -208.33323683 302.22047151 -208.33451414 296.96600103 C-208.33593825 293.67796118 -208.34021283 290.38993777 -208.34550858 287.10190201 C-208.3640015 275.61577558 -208.37218037 264.12969551 -208.37060547 252.64355469 C-208.36940523 241.96220968 -208.39048654 231.28106711 -208.4220928 220.59977329 C-208.4483107 211.4096507 -208.45897041 202.21959399 -208.45769465 193.02943432 C-208.45718651 187.54944621 -208.46278713 182.06963798 -208.48405075 176.58968735 C-208.50352542 171.43002854 -208.50349482 166.27071945 -208.48901749 161.11104774 C-208.48693949 159.22699912 -208.4915694 157.34292808 -208.5037384 155.45891762 C-208.61978754 136.23282832 -204.90158758 120.63889676 -191.63671875 105.984375 C-185.09291433 99.81865705 -177.89774711 95.02813943 -170.125 90.5625 C-168.17555384 89.42617129 -166.22634593 88.28943378 -164.27734375 87.15234375 C-163.25624512 86.55921387 -162.23514648 85.96608398 -161.18310547 85.35498047 C-155.66741327 82.14066621 -150.17829133 78.88160727 -144.6875 75.625 C-143.53778131 74.94397514 -142.38804164 74.2629857 -141.23828125 73.58203125 C-133.68277335 69.10483659 -126.14952433 64.59153327 -118.625 60.0625 C-108.16642246 53.76875375 -97.64628983 47.58468536 -87.10961914 41.4230957 C-79.95338281 37.23743106 -72.8205849 33.0180372 -65.72265625 28.734375 C-59.88499669 25.21901399 -54.00868901 21.76790269 -48.13354492 18.31567383 C-43.95409603 15.85617171 -39.78724266 13.38674007 -35.6796875 10.80859375 C-34.70322266 10.20144531 -34.70322266 10.20144531 -33.70703125 9.58203125 C-32.02539183 8.53145481 -30.35210527 7.46753893 -28.6796875 6.40234375 C-19.50353984 1.29416438 -10.3749841 -0.14786201 0 0 Z M-33.0625 24.5 C-34.34242555 25.2678611 -35.62311735 26.03444629 -36.90454102 26.79980469 C-40.04614963 28.67999124 -43.1785944 30.5748179 -46.30822754 32.47485352 C-48.71819228 33.93519581 -51.13607261 35.38216512 -53.5546875 36.828125 C-56.7832353 38.75892009 -60.00832 40.69526466 -63.23046875 42.63671875 C-68.2211374 45.63892588 -73.23370672 48.60336024 -78.25 51.5625 C-87.37943951 56.95085129 -96.50633596 62.34343163 -105.625 67.75 C-106.30276489 68.1517746 -106.98052979 68.55354919 -107.67883301 68.96749878 C-118.08720437 75.14088566 -128.44189901 81.39800159 -138.76934814 87.70565796 C-145.44803084 91.78234011 -152.14887608 95.78242437 -159 99.5625 C-173.57950783 107.63546629 -187.61673866 116.31322624 -193.12591648 132.8872509 C-195.93032986 143.39395755 -196.56808439 153.14670735 -196.50170898 163.98486328 C-196.50550288 165.77729718 -196.51101167 167.56972813 -196.51808167 169.3621521 C-196.53191199 174.18030029 -196.52095575 178.99808642 -196.50437045 183.81621408 C-196.49040112 188.88650114 -196.49699328 193.95676968 -196.50050354 199.02706909 C-196.50319585 207.53519445 -196.48981299 216.04317794 -196.46655273 224.55126953 C-196.43993213 234.35571843 -196.43820507 244.15993059 -196.4499411 253.96440327 C-196.46075827 263.44071456 -196.45450208 272.91694111 -196.44038582 282.3932457 C-196.43466183 286.4064423 -196.43468017 290.41957616 -196.43945122 294.43277359 C-196.44425971 299.1657242 -196.43396074 303.89841891 -196.41249657 308.63132095 C-196.4069815 310.35733172 -196.40641412 312.08336735 -196.41144943 313.80937958 C-196.45710311 331.71794771 -194.26097882 347.71916852 -181.4140625 361.3359375 C-176.43791547 365.79675539 -170.7259238 369.10988551 -165 372.5 C-164.19723633 372.97953125 -163.39447266 373.4590625 -162.56738281 373.953125 C-157.01540464 377.26798871 -151.44422145 380.5493432 -145.86572266 383.81933594 C-141.3013761 386.49619415 -136.74380941 389.18449002 -132.1875 391.875 C-131.28330322 392.40867187 -130.37910645 392.94234375 -129.44750977 393.4921875 C-122.59079929 397.54505885 -115.76169003 401.64266909 -108.9375 405.75 C-99.72461087 411.29375213 -90.46975243 416.76111764 -81.1875 422.1875 C-73.05916041 426.93938925 -64.94151935 431.70604083 -56.875 436.5625 C-55.72596191 437.25218872 -55.72596191 437.25218872 -54.55371094 437.95581055 C-50.34742153 440.48140397 -46.14755406 443.01709432 -41.95446777 445.56455994 C-39.54759973 447.02370015 -37.1357303 448.47444018 -34.72296143 449.92379761 C-32.99399038 450.96594993 -31.27105246 452.01809117 -29.54833984 453.07055664 C-21.21693402 458.06454979 -12.70980591 462.73585424 -2.8125 463.25 C-1.89082031 463.30671875 -0.96914062 463.3634375 -0.01953125 463.421875 C0.64691406 463.44765625 1.31335938 463.4734375 2 463.5 C1.00101675 461.49307401 -0.00467365 459.49097016 -1.03515625 457.5 C-1.37417969 456.84 -1.71320313 456.18 -2.0625 455.5 C-2.40410156 454.84 -2.74570313 454.18 -3.09765625 453.5 C-5.11083462 449.03789037 -5.14841771 444.76536761 -5.14717102 439.93128967 C-5.15084771 439.16525293 -5.1545244 438.39921619 -5.1583125 437.60996622 C-5.16933294 435.04083331 -5.17319046 432.47174088 -5.17700195 429.90258789 C-5.18326806 428.06104403 -5.18991499 426.21950143 -5.19691467 424.37796021 C-5.21794754 418.32620116 -5.22831928 412.2744419 -5.23828125 406.22265625 C-5.2423297 404.13653488 -5.24644664 402.05041363 -5.25063133 399.96429253 C-5.26968468 390.15854767 -5.283913 380.35281034 -5.2922433 370.54705054 C-5.30200367 359.24552079 -5.32829127 347.94418752 -5.36874419 336.64272696 C-5.39896658 327.89771554 -5.41371815 319.15276022 -5.41702431 310.40769762 C-5.41936864 305.18979608 -5.42824801 299.9721044 -5.45348549 294.75425911 C-5.47687716 289.83843746 -5.48095505 284.92296217 -5.47072411 280.00709915 C-5.47023125 278.21131801 -5.47647702 276.41551919 -5.49028015 274.61979103 C-5.60087567 259.36749005 -3.90700364 246.14893093 7 234.5 C14.53988411 228.16364578 22.82807989 222.94150887 31.25 217.875 C32.96174483 216.83381661 34.67347913 215.79261522 36.38444519 214.75015259 C37.54680101 214.04209413 38.70957155 213.33471604 39.87275696 212.62802124 C45.67859359 209.09801614 51.43412169 205.48961114 57.1875 201.875 C65.02575291 196.95893951 72.89989589 192.10793749 80.8125 187.3125 C88.45955359 182.67768811 96.05147857 177.96863143 103.59814453 173.17236328 C111.35160263 168.25447401 119.1752619 163.45271166 127.00366211 158.65527344 C132.54782926 155.25386406 138.07658589 151.83168328 143.57421875 148.35546875 C144.63358643 147.68684814 145.6929541 147.01822754 146.78442383 146.3293457 C148.77035426 145.07352983 150.75351248 143.81331333 152.7331543 142.54760742 C173.55249391 129.39573896 173.55249391 129.39573896 185 130.5 C187.81118204 131.29789325 190.31127525 132.32673829 193 133.5 C191.71634667 128.49375202 189.36537671 124.82066181 186.4375 120.6484375 C185 118.5 185 118.5 183.96484375 116.33984375 C182.4350744 113.42275322 179.73628754 112.16444285 177 110.5 C175.34555401 109.44004998 173.69200204 108.37870397 172.0390625 107.31640625 C166.03940302 103.49538578 159.94179169 99.85828416 153.8125 96.25 C152.64505188 95.56076772 151.477738 94.87130803 150.31054688 94.18164062 C148.46380491 93.09044749 146.61699582 91.99937026 144.76980591 90.90893555 C138.18211379 87.01969501 131.60495605 83.11277071 125.02819824 79.20507812 C116.63787691 74.21986885 108.24693846 69.23572558 99.84765625 64.265625 C89.08676348 57.89729338 78.33870444 51.50994846 67.625 45.0625 C58.96470671 39.8584043 50.28798649 34.68271196 41.5824585 29.55465698 C40.34341331 28.82418823 39.10513903 28.09240986 37.86773682 27.35916138 C11.50524565 11.7464371 -5.92120331 7.91714282 -33.0625 24.5 Z M60 262.5 C58.68381002 263.28551657 57.37214772 264.0786237 56.0625 264.875 C55.33160156 265.31585938 54.60070312 265.75671875 53.84765625 266.2109375 C51.86227728 267.3773984 51.86227728 267.3773984 51 269.5 C50.92818179 272.21760108 50.90700494 274.90859388 50.9375 277.625 C50.94201172 278.37910156 50.94652344 279.13320313 50.95117188 279.91015625 C50.96296501 281.77347127 50.98090058 283.63674555 51 285.5 C50.40058594 285.7578125 49.80117188 286.015625 49.18359375 286.28125 C42.10432084 290.23247209 37.590515 300.45650167 35.24609375 307.890625 C33.39231721 315.51314673 33.1387274 322.48486352 37 329.5 C41.84596192 335.0728562 46.90865895 335.53343395 54 336.5 C55.85708141 336.81669192 57.71157716 337.14910146 59.5625 337.5 C60.36816406 337.644375 61.17382812 337.78875 62.00390625 337.9375 C64 338.5 64 338.5 66 340.5 C66.88838892 346.63608158 66.47164461 352.37970926 63.328125 357.78125 C59.39699094 362.86859997 54.25716195 365.33341048 48 366.5 C44.65850557 366.64208701 41.34172358 366.62102822 38 366.5 C35.37124595 371.87180176 34.3916035 376.54492601 34 382.5 C40.69530202 383.56274635 45.45437566 383.26627958 52 381.5 C52 385.79 52 390.08 52 394.5 C57.92904103 392.62326906 57.92904103 392.62326906 62 388.5 C62.05214185 386.10437175 62.09188693 383.70846682 62.125 381.3125 C62.41490248 374.41087204 62.41490248 374.41087204 64.41015625 371.3046875 C65.60612728 370.21648528 66.83566332 369.16418781 68.09375 368.1484375 C75.41464334 361.81766498 79.39103793 350.46645986 80.34765625 341.09375 C80.56002259 333.04229568 80.00575795 327.72045494 74.375 321.6875 C67.34541618 316.44538981 57.36618267 316.99136776 49 316.5 C47.25161176 311.25483528 47.54878471 306.92489039 49.1875 301.75 C52.21651372 296.31866505 56.18778468 294.05434832 61.875 292.0078125 C64.14594856 291.46512259 65.99002987 291.47984562 68.3125 291.625 C71.99225687 291.91266929 71.99225687 291.91266929 73.875 289.6875 C75.50921208 285.05723245 76.27844698 280.34713855 77 275.5 C71.53891111 274.0997208 67.30723432 275.07294366 62 276.5 C62.02320313 275.65695312 62.04640625 274.81390625 62.0703125 273.9453125 C62.08835937 272.84960938 62.10640625 271.75390625 62.125 270.625 C62.14820313 269.53445313 62.17140625 268.44390625 62.1953125 267.3203125 C62.30060534 264.3628949 62.30060534 264.3628949 60 262.5 Z " fill="#C1C1AF" transform="translate(237,-0.5)"/>
</svg>
