<?xml version="1.0" encoding="UTF-8"?>
<svg version="1.1" xmlns="http://www.w3.org/2000/svg" width="474" height="474">
<path d="M0 0 C1.32 0 2.64 0 4 0 C6.11818665 4.97488905 8.23545427 9.95016808 10.35186768 14.92581177 C11.11734348 16.72539813 11.8829278 18.52493833 12.64862061 20.32443237 C16.93661295 30.40354666 21.21250982 40.48741158 25.4453125 50.58984375 C25.7996637 51.43482422 26.15401489 52.27980469 26.519104 53.15039062 C28.20202432 57.16397921 29.88197257 61.17876205 31.55664062 65.19580078 C34.72081524 72.76115116 37.99314581 80.25119288 41.49661255 87.66589355 C44.28903677 93.57860991 46.89922918 99.56373235 49.5 105.5625 C52.86172394 113.2563777 56.3050247 120.84506009 60.13671875 128.31640625 C62.62441848 133.18509101 64.95878321 138.12808494 67.3125 143.0625 C67.78357178 144.04847168 68.25464355 145.03444336 68.73999023 146.05029297 C71.03251561 150.85423788 73.31449339 155.66283985 75.578125 160.48046875 C79.84704066 169.54784273 84.24713708 178.50436611 88.96899414 187.34472656 C92.77587748 194.49869988 96.39356632 201.74368744 100 209 C104.68506141 218.41887996 109.45944846 227.77986751 114.39453125 237.0703125 C116.93825615 241.86421744 119.42793343 246.6853496 121.91699219 251.5078125 C127.88662445 263.07171129 133.9562777 274.57586237 140.11865234 286.03833008 C145.81037775 296.62741002 151.44644616 307.24544937 157.05712891 317.87768555 C160.63400601 324.65374958 164.2208737 331.4237028 167.85057068 338.17166138 C169.53993285 341.31347938 171.22333248 344.45847395 172.90634155 347.60369873 C173.71361219 349.108267 174.52381884 350.61126394 175.33706665 352.11260986 C176.46396349 354.19355138 177.58065253 356.27967251 178.6953125 358.3671875 C179.03186356 358.98225159 179.36841461 359.59731567 179.71516418 360.23101807 C181.45966795 363.52444263 182 365.16015263 182 369 C178.36972606 368.40810751 175.48824458 367.4142967 172.21875 365.7421875 C171.30359619 365.28432861 170.38844238 364.82646973 169.44555664 364.35473633 C168.47352295 363.86642334 167.50148926 363.37811035 166.5 362.875 C155.61723168 357.5170472 144.59642225 353.50645172 133 350 C134.10214844 350.65484375 135.20429688 351.3096875 136.33984375 351.984375 C151.44807928 361.03923856 165.69796871 370.9099595 179.34765625 382.04296875 C181.82687445 384.06413586 184.33319483 386.04130373 186.87109375 387.98828125 C187.50120361 388.47353271 188.13131348 388.95878418 188.78051758 389.45874023 C189.96519742 390.36837991 191.15354974 391.27326759 192.34643555 392.17211914 C199.93900783 398.02944126 203.71825565 404.77314829 208.10171509 413.16143799 C209.08062608 415.03468615 210.06778845 416.90336664 211.05737305 418.77099609 C212.06858089 420.67953227 213.07935991 422.58827703 214.08760071 424.49838257 C217.11517304 430.23323949 220.20188456 435.9347623 223.3125 441.625 C223.79178955 442.50526855 224.2710791 443.38553711 224.76489258 444.29248047 C227.12825206 448.62281191 229.52148412 452.93300215 231.96484375 457.21875 C232.4343042 458.04681152 232.90376465 458.87487305 233.38745117 459.72802734 C234.2693999 461.2795365 235.15844337 462.82704306 236.0559082 464.36962891 C238.07509726 467.92611231 239 469.82227073 239 474 C233.77152045 473.51083243 230.10963198 471.54964623 225.75 468.8125 C215.02799511 462.29330847 203.95875478 456.44210825 192.88720703 450.54345703 C190.52114082 449.27859397 188.1620092 448.00301028 185.80859375 446.71484375 C145.72525484 424.90413308 102.01394478 405.71611946 57.12109375 396.69140625 C54 396 54 396 53 395 C53.06618418 393.05960032 53.20522217 391.12159067 53.375 389.1875 C53.52388672 387.41826172 53.52388672 387.41826172 53.67578125 385.61328125 C53.87793585 383.36035348 54.08313408 381.10769419 54.29296875 378.85546875 C56.9378986 349.60791116 51.88722289 318.32652742 33 295 C32.37351562 294.12988281 32.37351562 294.12988281 31.734375 293.2421875 C25.55927534 284.93624359 15.78122379 279.85390033 5.75 278.125 C-2.67881899 277.4262378 -10.67702099 280.14875552 -17.4765625 285.01171875 C-19 286 -19 286 -21 286 C-21 286.66 -21 287.32 -21 288 C-21.969375 288.7425 -22.93875 289.485 -23.9375 290.25 C-40.00116502 303.67974424 -46.38996225 329.40253423 -48.6875 349.0546875 C-49.60473721 360.63480732 -49.17004492 371.8734524 -47.4375 383.3515625 C-46.9642798 387.29788096 -46.9298894 391.0299871 -47 395 C-47.65967773 395.14920898 -48.31935547 395.29841797 -48.99902344 395.45214844 C-96.95066207 406.47005653 -142.07923029 425.3122501 -185.34912109 448.57666016 C-188.34973463 450.18778347 -191.35653077 451.78707925 -194.36328125 453.38671875 C-210.34827748 461.9139778 -210.34827748 461.9139778 -225.92626953 471.15625 C-229.33732941 473.24172254 -230.88498495 474 -235 474 C-234.39167628 469.90364162 -233.04132037 466.82962378 -231.078125 463.1953125 C-230.47137939 462.06625488 -229.86463379 460.93719727 -229.23950195 459.77392578 C-228.57662466 458.5574591 -227.91345009 457.34115438 -227.25 456.125 C-226.56763889 454.86328803 -225.88559515 453.60140437 -225.20385742 452.33935547 C-220.47263408 443.6039225 -215.62362948 434.93708898 -210.70605469 426.30517578 C-206.54806766 419.00256766 -202.51369218 411.63857142 -198.51000977 404.25048828 C-194.99937658 397.78899614 -191.39352744 391.3873085 -187.75 385 C-182.30823646 375.4472674 -177.11595881 365.77592111 -171.97335815 356.06045532 C-167.54318378 347.6954277 -163.01657377 339.40295435 -158.3125 331.1875 C-153.24291361 322.32605321 -148.47421624 313.33643461 -143.80175781 304.26000977 C-140.31448838 297.49489602 -136.73468327 290.7913875 -133.0625 284.125 C-126.69525749 272.55069748 -120.64961993 260.81547131 -114.59277344 249.07666016 C-112.41658601 244.87305593 -110.21193319 240.68487485 -108 236.5 C-102.83087929 226.70986915 -97.73983359 216.8796191 -92.65234375 207.046875 C-90.23920584 202.38461766 -87.81426014 197.72881434 -85.37890625 193.078125 C-77.94435916 178.85775729 -70.80207961 164.53401574 -64 150 C-59.46336227 150.47958742 -57.11612137 151.32055653 -53.75 154.375 C-43.72903704 162.77337825 -32.00077609 169.05367042 -20.5 175.1875 C-19.77611084 175.57413818 -19.05222168 175.96077637 -18.30639648 176.35913086 C-14.83933411 178.32469445 -14.83933411 178.32469445 -11 179 C-11.43119141 178.65445068 -11.86238281 178.30890137 -12.30664062 177.95288086 C-22.65195173 169.6299306 -32.58316067 161.01231072 -42.13085938 151.78417969 C-43.96212232 150.03615597 -45.82645664 148.33184969 -47.703125 146.6328125 C-48.8235798 145.58925321 -49.94340816 144.54502077 -51.0625 143.5 C-51.84137573 142.81623291 -51.84137573 142.81623291 -52.63598633 142.11865234 C-54.03515625 140.78125 -54.03515625 140.78125 -56 138 C-55.68910186 132.90775553 -54.31465013 128.94738403 -52.1484375 124.36328125 C-51.85792511 123.73932968 -51.56741272 123.11537811 -51.26809692 122.47251892 C-50.63989473 121.12352854 -50.0080068 119.77624956 -49.37280273 118.43054199 C-47.63781283 114.74766826 -45.93924661 111.04812926 -44.2421875 107.34765625 C-43.71229218 106.19280228 -43.71229218 106.19280228 -43.17169189 105.01461792 C-39.43679474 96.83366292 -35.93986053 88.55858446 -32.5 80.25 C-32.1935556 79.51007813 -31.88711121 78.77015625 -31.57138062 78.0078125 C-29.36730053 72.67743042 -27.18044012 67.34008972 -25 62 C-24.51826324 60.82065887 -24.51826324 60.82065887 -24.02679443 59.61749268 C-15.92795695 39.78125333 -7.92545864 19.90613399 0 0 Z " fill="#C2C2B0" transform="translate(235,0)"/>
</svg>
