<?xml version="1.0" encoding="UTF-8"?>
<svg version="1.1" xmlns="http://www.w3.org/2000/svg" width="751" height="187">
<path d="M0 0 C1.32 0 2.64 0 4 0 C4 13.86 4 27.72 4 42 C5.65 42 7.3 42 9 42 C13 48.625 13 48.625 13 52 C15.64 52 18.28 52 21 52 C21 52.99 21 53.98 21 55 C18.03 55 15.06 55 12 55 C12 54.34 12 53.68 12 53 C10.515 52.505 10.515 52.505 9 52 C7.3125 48.9375 7.3125 48.9375 6 46 C4.68 48.31 3.36 50.62 2 53 C1.34 53 0.68 53 0 53 C0 53.66 0 54.32 0 55 C-5.61 55 -11.22 55 -17 55 C-17 54.01 -17 53.02 -17 52 C-12.05 52 -7.1 52 -2 52 C-1.34 50.02 -0.68 48.04 0 46 C0.66 44.68 1.32 43.36 2 42 C-4.27 41.67 -10.54 41.34 -17 41 C-17 40.01 -17 39.02 -17 38 C-11.39 38 -5.78 38 0 38 C0 25.46 0 12.92 0 0 Z " fill="#C2C2B0" transform="translate(538,47)"/>
<path d="M0 0 C1.32 0 2.64 0 4 0 C4 23.1 4 46.2 4 70 C2.68 70 1.36 70 0 70 C0 46.9 0 23.8 0 0 Z " fill="#C2C2B0" transform="translate(574,33)"/>
<path d="M0 0 C0.99 0 1.98 0 3 0 C3 18.48 3 36.96 3 56 C3.66 56 4.32 56 5 56 C4.49812446 60.31612964 3.86397305 63.64223849 1 67 C-2.1875 67.3125 -2.1875 67.3125 -5 67 C-9 60.5 -9 60.5 -9 56 C-7.125 56.125 -7.125 56.125 -5 57 C-3.75 60.0625 -3.75 60.0625 -3 63 C-2.34 63 -1.68 63 -1 63 C-0.34 61.02 0.32 59.04 1 57 C0.67 56.67 0.34 56.34 0 56 C-0.09365006 54.2507128 -0.11744438 52.49763746 -0.11352539 50.74584961 C-0.11344986 49.62476303 -0.11337433 48.50367645 -0.11329651 47.34861755 C-0.10813522 46.1288472 -0.10297394 44.90907684 -0.09765625 43.65234375 C-0.0962413 42.41078018 -0.09482635 41.16921661 -0.09336853 39.89002991 C-0.08870591 36.58394509 -0.07971497 33.27792854 -0.06866455 29.97186279 C-0.05844827 26.6003885 -0.05387045 23.22890717 -0.04882812 19.85742188 C-0.03777395 13.23826225 -0.02101736 6.61913507 0 0 Z " fill="#C2C2B0" transform="translate(560,47)"/>
<path d="M0 0 C1.32 0 2.64 0 4 0 C4 0.99 4 1.98 4 3 C13.70943816 3.83779436 23.26055028 4.12276617 33 4 C32.67 5.32 32.34 6.64 32 8 C27.8882744 8.02465746 23.77657722 8.04283959 19.66479492 8.05493164 C18.26504772 8.0599708 16.8653058 8.06680216 15.46557617 8.07543945 C13.45754223 8.0875232 11.44947043 8.09269807 9.44140625 8.09765625 C8.23170166 8.10289307 7.02199707 8.10812988 5.77563477 8.11352539 C3 8 3 8 2 7 C1.3503125 7.99 1.3503125 7.99 0.6875 9 C0.130625 9.66 -0.42625 10.32 -1 11 C-1.99 11 -2.98 11 -4 11 C-3.39301257 6.87248551 -1.96189209 3.6678852 0 0 Z " fill="#C2C2B0" transform="translate(569,117)"/>
<path d="M0 0 C2.31 0 4.62 0 7 0 C11 6.5 11 6.5 11 11 C9.1875 10.875 9.1875 10.875 7 10 C5.25 6.9375 5.25 6.9375 4 4 C2.68 6.31 1.36 8.62 0 11 C-0.66 11 -1.32 11 -2 11 C-2 11.66 -2 12.32 -2 13 C-7.61 13 -13.22 13 -19 13 C-19 12.01 -19 11.02 -19 10 C-14.05 10 -9.1 10 -4 10 C-3.34 8.02 -2.68 6.04 -2 4 C-1.36184656 2.65278717 -0.70674629 1.31252882 0 0 Z " fill="#C2C2B0" transform="translate(151,89)"/>
<path d="M0 0 C3.1875 -0.3125 3.1875 -0.3125 6 0 C10 6.5 10 6.5 10 11 C8.125 10.875 8.125 10.875 6 10 C4.75 6.9375 4.75 6.9375 4 4 C3.34 4 2.68 4 2 4 C1.731875 4.969375 1.46375 5.93875 1.1875 6.9375 C0.795625 7.948125 0.40375 8.95875 0 10 C-0.99 10.33 -1.98 10.66 -3 11 C-3 11.66 -3 12.32 -3 13 C-8.61 13 -14.22 13 -20 13 C-20 12.01 -20 11.02 -20 10 C-15.05 10 -10.1 10 -5 10 C-4.34 8.35 -3.68 6.7 -3 5 C-1.75 2.1875 -1.75 2.1875 0 0 Z " fill="#C2C2B0" transform="translate(656,61)"/>
<path d="M0 0 C2.31 0 4.62 0 7 0 C11 6.5 11 6.5 11 11 C9.1875 10.875 9.1875 10.875 7 10 C5.25 6.9375 5.25 6.9375 4 4 C2.68 6.31 1.36 8.62 0 11 C-0.66 11 -1.32 11 -2 11 C-2 11.66 -2 12.32 -2 13 C-7.61 13 -13.22 13 -19 13 C-19 12.01 -19 11.02 -19 10 C-14.05 10 -9.1 10 -4 10 C-3.34 8.02 -2.68 6.04 -2 4 C-1.36184656 2.65278717 -0.70674629 1.31252882 0 0 Z " fill="#C2C2B0" transform="translate(180,33)"/>
<path d="M0 0 C2.31 0 4.62 0 7 0 C7.67408308 1.26691507 8.33900497 2.53870749 9 3.8125 C9.556875 4.87404297 9.556875 4.87404297 10.125 5.95703125 C11 8 11 8 11 11 C9.68 11 8.36 11 7 11 C6.01 9.02 5.02 7.04 4 5 C3.401875 5.804375 2.80375 6.60875 2.1875 7.4375 C0 10 0 10 -3 11 C-3 11.66 -3 12.32 -3 13 C-8.28 13 -13.56 13 -19 13 C-19 12.01 -19 11.02 -19 10 C-14.05 10 -9.1 10 -4 10 C-3.67 8.68 -3.34 7.36 -3 6 C-2.03112419 3.98473831 -1.0358679 1.98166034 0 0 Z " fill="#C2C2B0" transform="translate(641,89)"/>
<path d="M0 0 C3.63297511 0.94457353 4.02589156 1.58532167 6 4.625 C7.60323204 7.39284399 8.125 8.55066445 8.125 11.8125 C6.805 11.8125 5.485 11.8125 4.125 11.8125 C3.67125 10.843125 3.2175 9.87375 2.75 8.875 C1.46713779 5.74170418 1.46713779 5.74170418 -0.875 4.8125 C-1.143125 5.781875 -1.41125 6.75125 -1.6875 7.75 C-2.079375 8.760625 -2.47125 9.77125 -2.875 10.8125 C-3.865 11.1425 -4.855 11.4725 -5.875 11.8125 C-5.875 12.4725 -5.875 13.1325 -5.875 13.8125 C-11.155 13.8125 -16.435 13.8125 -21.875 13.8125 C-21.875 12.8225 -21.875 11.8325 -21.875 10.8125 C-16.925 10.8125 -11.975 10.8125 -6.875 10.8125 C-6.545 9.1625 -6.215 7.5125 -5.875 5.8125 C-4.36682202 2.24049952 -3.78628163 1.07003611 0 0 Z " fill="#C2C2B0" transform="translate(672.875,32.1875)"/>
<path d="M0 0 C12.54 0 25.08 0 38 0 C38 0.99 38 1.98 38 3 C25.46 3 12.92 3 0 3 C0 2.01 0 1.02 0 0 Z " fill="#C2C2B0" transform="translate(255,29)"/>
<path d="M0 0 C1.32 0 2.64 0 4 0 C4 4.62 4 9.24 4 14 C4.66 14 5.32 14 6 14 C5.46972205 18.5073626 3.80388725 21.4539073 1 25 C0.01 25 -0.98 25 -2 25 C-1.39301257 20.87248551 0.03810791 17.6678852 2 14 C1.34 14 0.68 14 0 14 C0 9.38 0 4.76 0 0 Z " fill="#C2C2B0" transform="translate(315,75)"/>
<path d="M0 0 C2.3125 0.125 2.3125 0.125 5 1 C7.02201431 4.20733304 8 6.19154436 8 10 C13.28 10 18.56 10 24 10 C24 10.99 24 11.98 24 13 C18.39 13 12.78 13 7 13 C7 12.34 7 11.68 7 11 C6.01 10.67 5.02 10.34 4 10 C2.83203125 8.4765625 2.83203125 8.4765625 1.8125 6.625 C1.46832031 6.01914063 1.12414062 5.41328125 0.76953125 4.7890625 C0 3 0 3 0 0 Z " fill="#C2C2B0" transform="translate(154,159)"/>
<path d="M0 0 C1.75 0.0625 1.75 0.0625 4 1 C6.00840495 3.70049044 8 6.55126733 8 10 C12.95 10 17.9 10 23 10 C23 10.99 23 11.98 23 13 C17.39 13 11.78 13 6 13 C6 12.34 6 11.68 6 11 C5.34 11 4.68 11 4 11 C0 4.5 0 4.5 0 0 Z " fill="#C2C2B0" transform="translate(457,159)"/>
<path d="M0 0 C1.32 0 2.64 0 4 0 C3.39301257 4.12751449 1.96189209 7.3321148 0 11 C-0.66 11 -1.32 11 -2 11 C-2 11.66 -2 12.32 -2 13 C-7.61 13 -13.22 13 -19 13 C-19 12.01 -19 11.02 -19 10 C-14.05 10 -9.1 10 -4 10 C-3.34 8.02 -2.68 6.04 -2 4 C-1.36184656 2.65278717 -0.70674629 1.31252882 0 0 Z " fill="#C2C2B0" transform="translate(79,145)"/>
<path d="M0 0 C0.99 0 1.98 0 3 0 C2.49357808 4.35522853 1.61588503 7.44239635 -1 11 C-1.66 11 -2.32 11 -3 11 C-3 11.66 -3 12.32 -3 13 C-8.61 13 -14.22 13 -20 13 C-20 12.01 -20 11.02 -20 10 C-15.05 10 -10.1 10 -5 10 C-4.34 8.35 -3.68 6.7 -3 5 C-1.5625 2.1875 -1.5625 2.1875 0 0 Z " fill="#C2C2B0" transform="translate(51,89)"/>
<path d="M0 0 C1.75 0.0625 1.75 0.0625 4 1 C6.00840495 3.70049044 8 6.55126733 8 10 C12.95 10 17.9 10 23 10 C23 10.99 23 11.98 23 13 C17.39 13 11.78 13 6 13 C6 12.34 6 11.68 6 11 C5.34 11 4.68 11 4 11 C0 4.5 0 4.5 0 0 Z " fill="#C2C2B0" transform="translate(277,75)"/>
<path d="M0 0 C1.32 0 2.64 0 4 0 C3.39301257 4.12751449 1.96189209 7.3321148 0 11 C-0.66 11 -1.32 11 -2 11 C-2 11.66 -2 12.32 -2 13 C-7.61 13 -13.22 13 -19 13 C-19 12.01 -19 11.02 -19 10 C-14.05 10 -9.1 10 -4 10 C-3.34 8.02 -2.68 6.04 -2 4 C-1.36184656 2.65278717 -0.70674629 1.31252882 0 0 Z " fill="#C2C2B0" transform="translate(252,75)"/>
<path d="M0 0 C1.32 0 2.64 0 4 0 C4.67154933 1.28913487 5.33708859 2.58140204 6 3.875 C6.37125 4.59429687 6.7425 5.31359375 7.125 6.0546875 C8 8 8 8 8 10 C12.95 10 17.9 10 23 10 C23 10.99 23 11.98 23 13 C17.72 13 12.44 13 7 13 C7 12.34 7 11.68 7 11 C6.01 11 5.02 11 4 11 C3.32591692 9.73308493 2.66099503 8.46129251 2 7.1875 C1.62875 6.47980469 1.2575 5.77210938 0.875 5.04296875 C0 3 0 3 0 0 Z " fill="#C2C2B0" transform="translate(644,159)"/>
<path d="M0 0 C2.3125 0.125 2.3125 0.125 5 1 C7.02201431 4.20733304 8 6.19154436 8 10 C12.95 10 17.9 10 23 10 C23 10.99 23 11.98 23 13 C17.72 13 12.44 13 7 13 C7 12.34 7 11.68 7 11 C6.01 10.67 5.02 10.34 4 10 C2.83203125 8.4765625 2.83203125 8.4765625 1.8125 6.625 C1.46832031 6.01914063 1.12414062 5.41328125 0.76953125 4.7890625 C0 3 0 3 0 0 Z " fill="#C2C2B0" transform="translate(543,159)"/>
<path d="M0 0 C1.32 0 2.64 0 4 0 C4.67154933 1.28913487 5.33708859 2.58140204 6 3.875 C6.37125 4.59429687 6.7425 5.31359375 7.125 6.0546875 C8 8 8 8 8 10 C12.95 10 17.9 10 23 10 C23 10.99 23 11.98 23 13 C17.72 13 12.44 13 7 13 C7 12.34 7 11.68 7 11 C6.01 11 5.02 11 4 11 C3.32591692 9.73308493 2.66099503 8.46129251 2 7.1875 C1.62875 6.47980469 1.2575 5.77210938 0.875 5.04296875 C0 3 0 3 0 0 Z " fill="#C2C2B0" transform="translate(356,159)"/>
<path d="M0 0 C1.8125 0.125 1.8125 0.125 4 1 C5.95320589 4.20883825 7 6.2205439 7 10 C12.28 10 17.56 10 23 10 C23 10.99 23 11.98 23 13 C17.39 13 11.78 13 6 13 C6 12.34 6 11.68 6 11 C5.01 10.67 4.02 10.34 3 10 C0.78248601 6.30414334 0 4.36991627 0 0 Z " fill="#C2C2B0" transform="translate(54,159)"/>
<path d="M0 0 C2.3125 0.125 2.3125 0.125 5 1 C7.02201431 4.20733304 8 6.19154436 8 10 C12.95 10 17.9 10 23 10 C23 10.99 23 11.98 23 13 C17.72 13 12.44 13 7 13 C7 12.34 7 11.68 7 11 C6.01 10.67 5.02 10.34 4 10 C2.83203125 8.4765625 2.83203125 8.4765625 1.8125 6.625 C1.46832031 6.01914063 1.12414062 5.41328125 0.76953125 4.7890625 C0 3 0 3 0 0 Z " fill="#C2C2B0" transform="translate(255,145)"/>
<path d="M0 0 C1.32 0 2.64 0 4 0 C4.67154933 1.28913487 5.33708859 2.58140204 6 3.875 C6.37125 4.59429687 6.7425 5.31359375 7.125 6.0546875 C8 8 8 8 8 10 C12.95 10 17.9 10 23 10 C23 10.99 23 11.98 23 13 C17.72 13 12.44 13 7 13 C7 12.34 7 11.68 7 11 C6.01 11 5.02 11 4 11 C3.32591692 9.73308493 2.66099503 8.46129251 2 7.1875 C1.62875 6.47980469 1.2575 5.77210938 0.875 5.04296875 C0 3 0 3 0 0 Z " fill="#C2C2B0" transform="translate(39,131)"/>
<path d="M0 0 C1.8125 0.125 1.8125 0.125 4 1 C5.95320589 4.20883825 7 6.2205439 7 10 C12.28 10 17.56 10 23 10 C23 10.99 23 11.98 23 13 C17.39 13 11.78 13 6 13 C6 12.34 6 11.68 6 11 C5.01 10.67 4.02 10.34 3 10 C0.78248601 6.30414334 0 4.36991627 0 0 Z " fill="#C2C2B0" transform="translate(378,89)"/>
<path d="M0 0 C1.32 0 2.64 0 4 0 C3.46968862 4.5076467 1.74778884 7.41954788 -1 11 C-1.66 11 -2.32 11 -3 11 C-3 11.66 -3 12.32 -3 13 C-8.28 13 -13.56 13 -19 13 C-19 12.01 -19 11.02 -19 10 C-14.05 10 -9.1 10 -4 10 C-3.67 8.68 -3.34 7.36 -3 6 C-2.03112419 3.98473831 -1.0358679 1.98166034 0 0 Z " fill="#C2C2B0" transform="translate(353,89)"/>
<path d="M0 0 C1.32 0 2.64 0 4 0 C4.67154933 1.28913487 5.33708859 2.58140204 6 3.875 C6.37125 4.59429687 6.7425 5.31359375 7.125 6.0546875 C8 8 8 8 8 10 C12.95 10 17.9 10 23 10 C23 10.99 23 11.98 23 13 C17.72 13 12.44 13 7 13 C7 12.34 7 11.68 7 11 C6.01 11 5.02 11 4 11 C3.32591692 9.73308493 2.66099503 8.46129251 2 7.1875 C1.62875 6.47980469 1.2575 5.77210937 0.875 5.04296875 C0 3 0 3 0 0 Z " fill="#C2C2B0" transform="translate(176,89)"/>
<path d="M0 0 C1.32 0 2.64 0 4 0 C3.46968862 4.5076467 1.74778884 7.41954788 -1 11 C-1.66 11 -2.32 11 -3 11 C-3 11.66 -3 12.32 -3 13 C-8.28 13 -13.56 13 -19 13 C-19 12.01 -19 11.02 -19 10 C-14.05 10 -9.1 10 -4 10 C-3.67 8.68 -3.34 7.36 -3 6 C-2.03112419 3.98473831 -1.0358679 1.98166034 0 0 Z " fill="#C2C2B0" transform="translate(569,33)"/>
<path d="M0 0 C1.875 0.125 1.875 0.125 4 1 C5.25 4.0625 5.25 4.0625 6 7 C8.34058637 4.87219421 9.70700306 2.88437779 11 0 C12.32 0 13.64 0 15 0 C14.46823628 4.51999163 12.97021532 7.54812814 10 11 C6.75 11.375 6.75 11.375 4 11 C0 4.5 0 4.5 0 0 Z " fill="#C2C2B0" transform="translate(666,159)"/>
<path d="M0 0 C3.25543229 0.34879632 4.01873107 1.02133261 6.25 3.5625 C6.8275 4.366875 7.405 5.17125 8 6 C8.99 4.02 9.98 2.04 11 0 C12.32 0 13.64 0 15 0 C14.39301257 4.12751449 12.96189209 7.3321148 11 11 C8.69 11 6.38 11 4 11 C0 4.5 0 4.5 0 0 Z " fill="#C2C2B0" transform="translate(565,159)"/>
<path d="M0 0 C1.875 0.125 1.875 0.125 4 1 C5.25 4.0625 5.25 4.0625 6 7 C8.34058637 4.87219421 9.70700306 2.88437779 11 0 C12.32 0 13.64 0 15 0 C14.46823628 4.51999163 12.97021532 7.54812814 10 11 C6.75 11.375 6.75 11.375 4 11 C0 4.5 0 4.5 0 0 Z " fill="#C2C2B0" transform="translate(378,159)"/>
<path d="M0 0 C1.32 0 2.64 0 4 0 C5.32 2.31 6.64 4.62 8 7 C9.32 4.69 10.64 2.38 12 0 C12.99 0 13.98 0 15 0 C14.49846199 4.31322686 13.92172287 7.68871408 11 11 C7.3125 11.3125 7.3125 11.3125 4 11 C3.32591692 9.73308493 2.66099503 8.46129251 2 7.1875 C1.62875 6.47980469 1.2575 5.77210938 0.875 5.04296875 C0 3 0 3 0 0 Z " fill="#C2C2B0" transform="translate(176,159)"/>
<path d="M0 0 C1.32 0 2.64 0 4 0 C5.32 2.31 6.64 4.62 8 7 C9.32 4.69 10.64 2.38 12 0 C12.99 0 13.98 0 15 0 C14.49846199 4.31322686 13.92172287 7.68871408 11 11 C7.3125 11.3125 7.3125 11.3125 4 11 C3.32591692 9.73308493 2.66099503 8.46129251 2 7.1875 C1.62875 6.47980469 1.2575 5.77210938 0.875 5.04296875 C0 3 0 3 0 0 Z " fill="#C2C2B0" transform="translate(75,159)"/>
<path d="M0 0 C3.25543229 0.34879632 4.01873107 1.02133261 6.25 3.5625 C6.8275 4.366875 7.405 5.17125 8 6 C8.99 4.02 9.98 2.04 11 0 C12.32 0 13.64 0 15 0 C14.39301257 4.12751449 12.96189209 7.3321148 11 11 C8.69 11 6.38 11 4 11 C0 4.5 0 4.5 0 0 Z " fill="#C2C2B0" transform="translate(277,145)"/>
<path d="M0 0 C1.875 0.125 1.875 0.125 4 1 C5.25 4.0625 5.25 4.0625 6 7 C8.34058637 4.87219421 9.70700306 2.88437779 11 0 C12.32 0 13.64 0 15 0 C14.46823628 4.51999163 12.97021532 7.54812814 10 11 C6.75 11.375 6.75 11.375 4 11 C0 4.5 0 4.5 0 0 Z " fill="#C2C2B0" transform="translate(666,131)"/>
<path d="M0 0 C1.875 0.125 1.875 0.125 4 1 C5.25 4.0625 5.25 4.0625 6 7 C8.34058637 4.87219421 9.70700306 2.88437779 11 0 C12.32 0 13.64 0 15 0 C14.46823628 4.51999163 12.97021532 7.54812814 10 11 C6.75 11.375 6.75 11.375 4 11 C0 4.5 0 4.5 0 0 Z " fill="#C2C2B0" transform="translate(378,131)"/>
<path d="M0 0 C1.32 0 2.64 0 4 0 C5.32 2.31 6.64 4.62 8 7 C9.32 4.69 10.64 2.38 12 0 C12.99 0 13.98 0 15 0 C14.49846199 4.31322686 13.92172287 7.68871408 11 11 C7.3125 11.3125 7.3125 11.3125 4 11 C3.32591692 9.73308493 2.66099503 8.46129251 2 7.1875 C1.62875 6.47980469 1.2575 5.77210938 0.875 5.04296875 C0 3 0 3 0 0 Z " fill="#C2C2B0" transform="translate(176,131)"/>
<path d="M0 0 C3.25543229 0.34879632 4.01873107 1.02133261 6.25 3.5625 C6.8275 4.366875 7.405 5.17125 8 6 C8.99 4.02 9.98 2.04 11 0 C12.32 0 13.64 0 15 0 C14.39301257 4.12751449 12.96189209 7.3321148 11 11 C8.69 11 6.38 11 4 11 C0 4.5 0 4.5 0 0 Z " fill="#C2C2B0" transform="translate(61,131)"/>
<path d="M0 0 C3.25543229 0.34879632 4.01873107 1.02133261 6.25 3.5625 C6.8275 4.366875 7.405 5.17125 8 6 C8.99 4.02 9.98 2.04 11 0 C12.32 0 13.64 0 15 0 C14.39301257 4.12751449 12.96189209 7.3321148 11 11 C8.69 11 6.38 11 4 11 C0 4.5 0 4.5 0 0 Z " fill="#C2C2B0" transform="translate(277,117)"/>
<path d="M0 0 C1.32 0 2.64 0 4 0 C5.32 2.31 6.64 4.62 8 7 C9.32 4.69 10.64 2.38 12 0 C12.99 0 13.98 0 15 0 C14.49846199 4.31322686 13.92172287 7.68871408 11 11 C7.3125 11.3125 7.3125 11.3125 4 11 C3.32591692 9.73308493 2.66099503 8.46129251 2 7.1875 C1.62875 6.47980469 1.2575 5.77210937 0.875 5.04296875 C0 3 0 3 0 0 Z " fill="#C2C2B0" transform="translate(680,103)"/>
<path d="M0 0 C1.32 0 2.64 0 4 0 C5.32 2.31 6.64 4.62 8 7 C9.32 4.69 10.64 2.38 12 0 C12.99 0 13.98 0 15 0 C14.49846199 4.31322686 13.92172287 7.68871408 11 11 C7.3125 11.3125 7.3125 11.3125 4 11 C3.32591692 9.73308493 2.66099503 8.46129251 2 7.1875 C1.62875 6.47980469 1.2575 5.77210937 0.875 5.04296875 C0 3 0 3 0 0 Z " fill="#C2C2B0" transform="translate(464,103)"/>
<path d="M0 0 C3.25543229 0.34879632 4.01873107 1.02133261 6.25 3.5625 C6.8275 4.366875 7.405 5.17125 8 6 C8.99 4.02 9.98 2.04 11 0 C12.32 0 13.64 0 15 0 C14.39301257 4.12751449 12.96189209 7.3321148 11 11 C8.69 11 6.38 11 4 11 C0 4.5 0 4.5 0 0 Z " fill="#C2C2B0" transform="translate(61,103)"/>
<path d="M0 0 C10.23 0 20.46 0 31 0 C31 0.99 31 1.98 31 3 C20.77 3 10.54 3 0 3 C0 2.01 0 1.02 0 0 Z " fill="#C2C2B0" transform="translate(579,99)"/>
<path d="M0 0 C3.63297511 0.94457353 4.02589156 1.58532167 6 4.625 C7.60323204 7.39284399 8.125 8.55066445 8.125 11.8125 C6.805 11.8125 5.485 11.8125 4.125 11.8125 C3.67125 10.843125 3.2175 9.87375 2.75 8.875 C1.46713779 5.74170418 1.46713779 5.74170418 -0.875 4.8125 C-1.1225 5.781875 -1.37 6.75125 -1.625 7.75 C-2.0375 8.760625 -2.45 9.77125 -2.875 10.8125 C-5 11.6875 -5 11.6875 -6.875 11.8125 C-5.68838212 1.60758625 -5.68838212 1.60758625 0 0 Z " fill="#C2C2B0" transform="translate(96.875,88.1875)"/>
<path d="M0 0 C3.63297511 0.94457353 4.02589156 1.58532167 6 4.625 C7.60323204 7.39284399 8.125 8.55066445 8.125 11.8125 C6.805 11.8125 5.485 11.8125 4.125 11.8125 C3.67125 10.843125 3.2175 9.87375 2.75 8.875 C1.46713779 5.74170418 1.46713779 5.74170418 -0.875 4.8125 C-1.1225 5.781875 -1.37 6.75125 -1.625 7.75 C-2.0375 8.760625 -2.45 9.77125 -2.875 10.8125 C-5 11.6875 -5 11.6875 -6.875 11.8125 C-5.68838212 1.60758625 -5.68838212 1.60758625 0 0 Z " fill="#C2C2B0" transform="translate(384.875,60.1875)"/>
<path d="M0 0 C3.63297511 0.94457353 4.02589156 1.58532167 6 4.625 C7.60323204 7.39284399 8.125 8.55066445 8.125 11.8125 C6.805 11.8125 5.485 11.8125 4.125 11.8125 C3.67125 10.843125 3.2175 9.87375 2.75 8.875 C1.46713779 5.74170418 1.46713779 5.74170418 -0.875 4.8125 C-1.1225 5.781875 -1.37 6.75125 -1.625 7.75 C-2.0375 8.760625 -2.45 9.77125 -2.875 10.8125 C-5 11.6875 -5 11.6875 -6.875 11.8125 C-5.68838212 1.60758625 -5.68838212 1.60758625 0 0 Z " fill="#C2C2B0" transform="translate(96.875,60.1875)"/>
<path d="M0 0 C2.31 0 4.62 0 7 0 C7.67408308 1.26691507 8.33900497 2.53870749 9 3.8125 C9.556875 4.87404297 9.556875 4.87404297 10.125 5.95703125 C11 8 11 8 11 11 C9.68 11 8.36 11 7 11 C5.515 8.03 5.515 8.03 4 5 C3.4225 5.804375 2.845 6.60875 2.25 7.4375 C0.01873107 9.97866739 -0.74456771 10.65120368 -4 11 C-3.39301257 6.87248551 -1.96189209 3.6678852 0 0 Z " fill="#C2C2B0" transform="translate(281,47)"/>
<path d="M0 0 C3.63297511 0.94457353 4.02589156 1.58532167 6 4.625 C7.60323204 7.39284399 8.125 8.55066445 8.125 11.8125 C6.805 11.8125 5.485 11.8125 4.125 11.8125 C3.67125 10.843125 3.2175 9.87375 2.75 8.875 C1.46713779 5.74170418 1.46713779 5.74170418 -0.875 4.8125 C-1.1225 5.781875 -1.37 6.75125 -1.625 7.75 C-2.0375 8.760625 -2.45 9.77125 -2.875 10.8125 C-5 11.6875 -5 11.6875 -6.875 11.8125 C-5.68838212 1.60758625 -5.68838212 1.60758625 0 0 Z " fill="#C2C2B0" transform="translate(384.875,32.1875)"/>
<path d="M0 0 C2.31 0 4.62 0 7 0 C11 6.5 11 6.5 11 11 C9.1875 10.875 9.1875 10.875 7 10 C5.25 6.9375 5.25 6.9375 4 4 C2.68 6.31 1.36 8.62 0 11 C-1.32 11 -2.64 11 -4 11 C-3.39301257 6.87248551 -1.96189209 3.6678852 0 0 Z " fill="#C2C2B0" transform="translate(79,33)"/>
<path d="M0 0 C0.99 0 1.98 0 3 0 C2.49357808 4.35522853 1.61588503 7.44239635 -1 11 C-1.66 11 -2.32 11 -3 11 C-3 11.66 -3 12.32 -3 13 C-8.28 13 -13.56 13 -19 13 C-19 12.01 -19 11.02 -19 10 C-14.05 10 -9.1 10 -4 10 C-3.67 8.35 -3.34 6.7 -3 5 C-1.625 2.1875 -1.625 2.1875 0 0 Z " fill="#C2C2B0" transform="translate(454,89)"/>
<path d="M0 0 C1.875 0.125 1.875 0.125 4 1 C5.25 4.0625 5.25 4.0625 6 7 C6.66 7 7.32 7 8 7 C8.37125 5.5459375 8.37125 5.5459375 8.75 4.0625 C9.1625 3.051875 9.575 2.04125 10 1 C12.125 0.125 12.125 0.125 14 0 C13.49812446 4.31612964 12.86397305 7.64223849 10 11 C6.8125 11.3125 6.8125 11.3125 4 11 C0 4.5 0 4.5 0 0 Z " fill="#C2C2B0" transform="translate(479,159)"/>
<path d="M0 0 C0.928125 0.103125 1.85625 0.20625 2.8125 0.3125 C6.8125 6.8125 6.8125 6.8125 6.8125 11.3125 C4.9375 11.1875 4.9375 11.1875 2.8125 10.3125 C1.5625 7.25 1.5625 7.25 0.8125 4.3125 C0.1525 4.3125 -0.5075 4.3125 -1.1875 4.3125 C-1.435 5.281875 -1.6825 6.25125 -1.9375 7.25 C-2.35 8.260625 -2.7625 9.27125 -3.1875 10.3125 C-5.3125 11.1875 -5.3125 11.1875 -7.1875 11.3125 C-5.93980627 0.58233395 -5.93980627 0.58233395 0 0 Z " fill="#C2C2B0" transform="translate(486.1875,60.6875)"/>
<path d="M0 0 C0.928125 0.103125 1.85625 0.20625 2.8125 0.3125 C6.8125 6.8125 6.8125 6.8125 6.8125 11.3125 C4.9375 11.1875 4.9375 11.1875 2.8125 10.3125 C1.5625 7.25 1.5625 7.25 0.8125 4.3125 C0.1525 4.3125 -0.5075 4.3125 -1.1875 4.3125 C-1.435 5.281875 -1.6825 6.25125 -1.9375 7.25 C-2.35 8.260625 -2.7625 9.27125 -3.1875 10.3125 C-5.3125 11.1875 -5.3125 11.1875 -7.1875 11.3125 C-5.93980627 0.58233395 -5.93980627 0.58233395 0 0 Z " fill="#C2C2B0" transform="translate(486.1875,32.6875)"/>
<path d="M0 0 C1.32 0 2.64 0 4 0 C3.46972205 4.5073626 1.80388725 7.4539073 -1 11 C-1.99 11 -2.98 11 -4 11 C-4 10.01 -4 9.02 -4 8 C-6.31 7.67 -8.62 7.34 -11 7 C-11 6.01 -11 5.02 -11 4 C-8.03 4 -5.06 4 -2 4 C-1.34 2.68 -0.68 1.36 0 0 Z " fill="#C2C2B0" transform="translate(101,103)"/>
<path d="M0 0 C1.8125 0.125 1.8125 0.125 4 1 C5.95320589 4.20883825 7 6.2205439 7 10 C9.97 10 12.94 10 16 10 C16 10.99 16 11.98 16 13 C12.7 13 9.4 13 6 13 C6 12.34 6 11.68 6 11 C5.01 10.67 4.02 10.34 3 10 C0.78248601 6.30414334 0 4.36991627 0 0 Z " fill="#C2C2B0" transform="translate(630,75)"/>
<path d="M0 0 C0.99 0 1.98 0 3 0 C2.49516338 4.34159496 1.68099266 7.49408652 -1 11 C-1.99 11 -2.98 11 -4 11 C-4 10.01 -4 9.02 -4 8 C-6.31 7.67 -8.62 7.34 -11 7 C-11 6.01 -11 5.02 -11 4 C-9.741875 4.0825 -8.48375 4.165 -7.1875 4.25 C-5.00414041 4.31740237 -5.00414041 4.31740237 -3 4 C-1.15684329 2.0995533 -1.15684329 2.0995533 0 0 Z " fill="#C2C2B0" transform="translate(490,75)"/>
<path d="M0 0 C1.32 0 2.64 0 4 0 C4.67154933 1.28913487 5.33708859 2.58140204 6 3.875 C6.37125 4.59429687 6.7425 5.31359375 7.125 6.0546875 C8 8 8 8 8 10 C10.64 10 13.28 10 16 10 C16 10.99 16 11.98 16 13 C13.03 13 10.06 13 7 13 C7 12.34 7 11.68 7 11 C6.01 11 5.02 11 4 11 C3.32591692 9.73308493 2.66099503 8.46129251 2 7.1875 C1.62875 6.47980469 1.2575 5.77210937 0.875 5.04296875 C0 3 0 3 0 0 Z " fill="#C2C2B0" transform="translate(644,47)"/>
<path d="M0 0 C7.92 0 15.84 0 24 0 C24 0.99 24 1.98 24 3 C16.08 3 8.16 3 0 3 C0 2.01 0 1.02 0 0 Z " fill="#C2C2B0" transform="translate(132,85)"/>
<path d="M0 0 C7.92 0 15.84 0 24 0 C24 0.99 24 1.98 24 3 C16.08 3 8.16 3 0 3 C0 2.01 0 1.02 0 0 Z " fill="#C2C2B0" transform="translate(550,29)"/>
<path d="M0 0 C7.92 0 15.84 0 24 0 C24 0.99 24 1.98 24 3 C16.08 3 8.16 3 0 3 C0 2.01 0 1.02 0 0 Z " fill="#C2C2B0" transform="translate(463,29)"/>
<path d="M0 0 C7.92 0 15.84 0 24 0 C24 0.99 24 1.98 24 3 C16.08 3 8.16 3 0 3 C0 2.01 0 1.02 0 0 Z " fill="#C2C2B0" transform="translate(161,29)"/>
<path d="M0 0 C7.92 0 15.84 0 24 0 C24 0.99 24 1.98 24 3 C16.08 3 8.16 3 0 3 C0 2.01 0 1.02 0 0 Z " fill="#C2C2B0" transform="translate(60,29)"/>
<path d="M0 0 C7.59 0 15.18 0 23 0 C23 0.99 23 1.98 23 3 C15.41 3 7.82 3 0 3 C0 2.01 0 1.02 0 0 Z " fill="#C2C2B0" transform="translate(651,29)"/>
<path d="M0 0 C7.59 0 15.18 0 23 0 C23 0.99 23 1.98 23 3 C15.41 3 7.82 3 0 3 C0 2.01 0 1.02 0 0 Z " fill="#C2C2B0" transform="translate(363,29)"/>
<path d="M0 0 C1.32 0 2.64 0 4 0 C3.39301257 4.12751449 1.96189209 7.3321148 0 11 C-1.32 11 -2.64 11 -4 11 C-3.39301257 6.87248551 -1.96189209 3.6678852 0 0 Z " fill="#C2C2B0" transform="translate(684,145)"/>
<path d="M0 0 C1.75 0.0625 1.75 0.0625 4 1 C6.44727466 4.2161819 8 6.92394904 8 11 C6.68 11 5.36 11 4 11 C0 4.5 0 4.5 0 0 Z " fill="#C2C2B0" transform="translate(637,145)"/>
<path d="M0 0 C1.32 0 2.64 0 4 0 C4.67408308 1.26691507 5.33900497 2.53870749 6 3.8125 C6.556875 4.87404297 6.556875 4.87404297 7.125 5.95703125 C8 8 8 8 8 11 C6.68 11 5.36 11 4 11 C3.32591692 9.73308493 2.66099503 8.46129251 2 7.1875 C1.62875 6.47980469 1.2575 5.77210938 0.875 5.04296875 C0 3 0 3 0 0 Z " fill="#C2C2B0" transform="translate(572,145)"/>
<path d="M0 0 C1.32 0 2.64 0 4 0 C4.67408308 1.26691507 5.33900497 2.53870749 6 3.8125 C6.556875 4.87404297 6.556875 4.87404297 7.125 5.95703125 C8 8 8 8 8 11 C6.68 11 5.36 11 4 11 C3.32591692 9.73308493 2.66099503 8.46129251 2 7.1875 C1.62875 6.47980469 1.2575 5.77210938 0.875 5.04296875 C0 3 0 3 0 0 Z " fill="#C2C2B0" transform="translate(536,145)"/>
<path d="M0 0 C2.3125 0.125 2.3125 0.125 5 1 C7.36101949 4.66365093 8 6.59781468 8 11 C6.25 10.9375 6.25 10.9375 4 10 C1.55272534 6.7838181 0 4.07605096 0 0 Z " fill="#C2C2B0" transform="translate(471,145)"/>
<path d="M0 0 C1.32 0 2.64 0 4 0 C3.39301257 4.12751449 1.96189209 7.3321148 0 11 C-1.32 11 -2.64 11 -4 11 C-3.39301257 6.87248551 -1.96189209 3.6678852 0 0 Z " fill="#C2C2B0" transform="translate(396,145)"/>
<path d="M0 0 C2.3125 0.125 2.3125 0.125 5 1 C7.36101949 4.66365093 8 6.59781468 8 11 C6.25 10.9375 6.25 10.9375 4 10 C1.55272534 6.7838181 0 4.07605096 0 0 Z " fill="#C2C2B0" transform="translate(370,145)"/>
<path d="M0 0 C1.75 0.0625 1.75 0.0625 4 1 C6.44727466 4.2161819 8 6.92394904 8 11 C6.68 11 5.36 11 4 11 C0 4.5 0 4.5 0 0 Z " fill="#C2C2B0" transform="translate(349,145)"/>
<path d="M0 0 C0.99 0 1.98 0 3 0 C2.49646154 4.33043075 1.74386457 7.54476313 -1 11 C-2.32 11 -3.64 11 -5 11 C-4.32902328 6.80639551 -2.1441606 3.59665648 0 0 Z " fill="#C2C2B0" transform="translate(195,145)"/>
<path d="M0 0 C1.75 0.0625 1.75 0.0625 4 1 C6.44727466 4.2161819 8 6.92394904 8 11 C6.68 11 5.36 11 4 11 C0 4.5 0 4.5 0 0 Z " fill="#C2C2B0" transform="translate(169,145)"/>
<path d="M0 0 C1.32 0 2.64 0 4 0 C4.67408308 1.26691507 5.33900497 2.53870749 6 3.8125 C6.556875 4.87404297 6.556875 4.87404297 7.125 5.95703125 C8 8 8 8 8 11 C6.68 11 5.36 11 4 11 C3.32591692 9.73308493 2.66099503 8.46129251 2 7.1875 C1.62875 6.47980469 1.2575 5.77210938 0.875 5.04296875 C0 3 0 3 0 0 Z " fill="#C2C2B0" transform="translate(147,145)"/>
<path d="M0 0 C0.99 0 1.98 0 3 0 C2.49646154 4.33043075 1.74386457 7.54476313 -1 11 C-2.32 11 -3.64 11 -5 11 C-4.32902328 6.80639551 -2.1441606 3.59665648 0 0 Z " fill="#C2C2B0" transform="translate(692,131)"/>
<path d="M0 0 C2.3125 0.125 2.3125 0.125 5 1 C7.36101949 4.66365093 8 6.59781468 8 11 C6.25 10.9375 6.25 10.9375 4 10 C1.55272534 6.7838181 0 4.07605096 0 0 Z " fill="#C2C2B0" transform="translate(651,131)"/>
<path d="M0 0 C1.75 0.0625 1.75 0.0625 4 1 C6.44727466 4.2161819 8 6.92394904 8 11 C6.68 11 5.36 11 4 11 C0 4.5 0 4.5 0 0 Z " fill="#C2C2B0" transform="translate(565,131)"/>
<path d="M0 0 C1.75 0.0625 1.75 0.0625 4 1 C6.44727466 4.2161819 8 6.92394904 8 11 C6.68 11 5.36 11 4 11 C0 4.5 0 4.5 0 0 Z " fill="#C2C2B0" transform="translate(529,131)"/>
<path d="M0 0 C1.32 0 2.64 0 4 0 C4.67408308 1.26691507 5.33900497 2.53870749 6 3.8125 C6.556875 4.87404297 6.556875 4.87404297 7.125 5.95703125 C8 8 8 8 8 11 C6.68 11 5.36 11 4 11 C3.32591692 9.73308493 2.66099503 8.46129251 2 7.1875 C1.62875 6.47980469 1.2575 5.77210938 0.875 5.04296875 C0 3 0 3 0 0 Z " fill="#C2C2B0" transform="translate(464,131)"/>
<path d="M0 0 C2.3125 0.125 2.3125 0.125 5 1 C7.36101949 4.66365093 8 6.59781468 8 11 C6.25 10.9375 6.25 10.9375 4 10 C1.55272534 6.7838181 0 4.07605096 0 0 Z " fill="#C2C2B0" transform="translate(442,131)"/>
<path d="M0 0 C0.99 0 1.98 0 3 0 C2.49646154 4.33043075 1.74386457 7.54476313 -1 11 C-2.32 11 -3.64 11 -5 11 C-4.32902328 6.80639551 -2.1441606 3.59665648 0 0 Z " fill="#C2C2B0" transform="translate(404,131)"/>
<path d="M0 0 C2.3125 0.125 2.3125 0.125 5 1 C7.36101949 4.66365093 8 6.59781468 8 11 C6.25 10.9375 6.25 10.9375 4 10 C1.55272534 6.7838181 0 4.07605096 0 0 Z " fill="#C2C2B0" transform="translate(363,131)"/>
<path d="M0 0 C0.99 0 1.98 0 3 0 C2.49646154 4.33043075 1.74386457 7.54476313 -1 11 C-2.32 11 -3.64 11 -5 11 C-4.32902328 6.80639551 -2.1441606 3.59665648 0 0 Z " fill="#C2C2B0" transform="translate(296,131)"/>
<path d="M0 0 C1.32 0 2.64 0 4 0 C4.67408308 1.26691507 5.33900497 2.53870749 6 3.8125 C6.556875 4.87404297 6.556875 4.87404297 7.125 5.95703125 C8 8 8 8 8 11 C6.68 11 5.36 11 4 11 C3.32591692 9.73308493 2.66099503 8.46129251 2 7.1875 C1.62875 6.47980469 1.2575 5.77210938 0.875 5.04296875 C0 3 0 3 0 0 Z " fill="#C2C2B0" transform="translate(248,131)"/>
<path d="M0 0 C1.32 0 2.64 0 4 0 C4.67408308 1.26691507 5.33900497 2.53870749 6 3.8125 C6.556875 4.87404297 6.556875 4.87404297 7.125 5.95703125 C8 8 8 8 8 11 C6.68 11 5.36 11 4 11 C3.32591692 9.73308493 2.66099503 8.46129251 2 7.1875 C1.62875 6.47980469 1.2575 5.77210938 0.875 5.04296875 C0 3 0 3 0 0 Z " fill="#C2C2B0" transform="translate(140,131)"/>
<path d="M0 0 C1.32 0 2.64 0 4 0 C3.46972205 4.5073626 1.80388725 7.4539073 -1 11 C-1.99 11 -2.98 11 -4 11 C-3.39301257 6.87248551 -1.96189209 3.6678852 0 0 Z " fill="#C2C2B0" transform="translate(101,131)"/>
<path d="M0 0 C0.99 0 1.98 0 3 0 C2.49646154 4.33043075 1.74386457 7.54476313 -1 11 C-2.32 11 -3.64 11 -5 11 C-4.32902328 6.80639551 -2.1441606 3.59665648 0 0 Z " fill="#C2C2B0" transform="translate(87,131)"/>
<path d="M0 0 C1.75 0.0625 1.75 0.0625 4 1 C6.44727466 4.2161819 8 6.92394904 8 11 C6.68 11 5.36 11 4 11 C0 4.5 0 4.5 0 0 Z " fill="#C2C2B0" transform="translate(673,117)"/>
<path d="M0 0 C1.32 0 2.64 0 4 0 C4.67408308 1.26691507 5.33900497 2.53870749 6 3.8125 C6.556875 4.87404297 6.556875 4.87404297 7.125 5.95703125 C8 8 8 8 8 11 C6.68 11 5.36 11 4 11 C3.32591692 9.73308493 2.66099503 8.46129251 2 7.1875 C1.62875 6.47980469 1.2575 5.77210937 0.875 5.04296875 C0 3 0 3 0 0 Z " fill="#C2C2B0" transform="translate(644,117)"/>
<path d="M0 0 C2.3125 0.125 2.3125 0.125 5 1 C7.36101949 4.66365093 8 6.59781468 8 11 C6.25 10.9375 6.25 10.9375 4 10 C1.55272534 6.7838181 0 4.07605096 0 0 Z " fill="#C2C2B0" transform="translate(543,117)"/>
<path d="M0 0 C1.75 0.0625 1.75 0.0625 4 1 C6.44727466 4.2161819 8 6.92394904 8 11 C6.68 11 5.36 11 4 11 C0 4.5 0 4.5 0 0 Z " fill="#C2C2B0" transform="translate(457,117)"/>
<path d="M0 0 C2.3125 0.125 2.3125 0.125 5 1 C7.36101949 4.66365093 8 6.59781468 8 11 C6.25 10.9375 6.25 10.9375 4 10 C1.55272534 6.7838181 0 4.07605096 0 0 Z " fill="#C2C2B0" transform="translate(435,117)"/>
<path d="M0 0 C0.99 0 1.98 0 3 0 C2.49646154 4.33043075 1.74386457 7.54476313 -1 11 C-2.32 11 -3.64 11 -5 11 C-4.32902328 6.80639551 -2.1441606 3.59665648 0 0 Z " fill="#C2C2B0" transform="translate(411,117)"/>
<path d="M0 0 C1.32 0 2.64 0 4 0 C3.39301257 4.12751449 1.96189209 7.3321148 0 11 C-1.32 11 -2.64 11 -4 11 C-3.39301257 6.87248551 -1.96189209 3.6678852 0 0 Z " fill="#C2C2B0" transform="translate(396,117)"/>
<path d="M0 0 C2.3125 0.125 2.3125 0.125 5 1 C7.36101949 4.66365093 8 6.59781468 8 11 C6.25 10.9375 6.25 10.9375 4 10 C1.55272534 6.7838181 0 4.07605096 0 0 Z " fill="#C2C2B0" transform="translate(370,117)"/>
<path d="M0 0 C1.32 0 2.64 0 4 0 C4.67408308 1.26691507 5.33900497 2.53870749 6 3.8125 C6.556875 4.87404297 6.556875 4.87404297 7.125 5.95703125 C8 8 8 8 8 11 C6.68 11 5.36 11 4 11 C3.32591692 9.73308493 2.66099503 8.46129251 2 7.1875 C1.62875 6.47980469 1.2575 5.77210937 0.875 5.04296875 C0 3 0 3 0 0 Z " fill="#C2C2B0" transform="translate(356,117)"/>
<path d="M0 0 C2.3125 0.125 2.3125 0.125 5 1 C7.36101949 4.66365093 8 6.59781468 8 11 C6.25 10.9375 6.25 10.9375 4 10 C1.55272534 6.7838181 0 4.07605096 0 0 Z " fill="#C2C2B0" transform="translate(334,117)"/>
<path d="M0 0 C0.99 0 1.98 0 3 0 C2.49646154 4.33043075 1.74386457 7.54476313 -1 11 C-2.32 11 -3.64 11 -5 11 C-4.32902328 6.80639551 -2.1441606 3.59665648 0 0 Z " fill="#C2C2B0" transform="translate(303,117)"/>
<path d="M0 0 C2.3125 0.125 2.3125 0.125 5 1 C7.36101949 4.66365093 8 6.59781468 8 11 C6.25 10.9375 6.25 10.9375 4 10 C1.55272534 6.7838181 0 4.07605096 0 0 Z " fill="#C2C2B0" transform="translate(262,117)"/>
<path d="M0 0 C1.75 0.0625 1.75 0.0625 4 1 C6.44727466 4.2161819 8 6.92394904 8 11 C6.68 11 5.36 11 4 11 C0 4.5 0 4.5 0 0 Z " fill="#C2C2B0" transform="translate(241,117)"/>
<path d="M0 0 C1.32 0 2.64 0 4 0 C3.46972205 4.5073626 1.80388725 7.4539073 -1 11 C-1.99 11 -2.98 11 -4 11 C-3.39301257 6.87248551 -1.96189209 3.6678852 0 0 Z " fill="#C2C2B0" transform="translate(209,117)"/>
<path d="M0 0 C0.99 0 1.98 0 3 0 C2.49646154 4.33043075 1.74386457 7.54476313 -1 11 C-2.32 11 -3.64 11 -5 11 C-4.32902328 6.80639551 -2.1441606 3.59665648 0 0 Z " fill="#C2C2B0" transform="translate(195,117)"/>
<path d="M0 0 C1.75 0.0625 1.75 0.0625 4 1 C6.44727466 4.2161819 8 6.92394904 8 11 C6.68 11 5.36 11 4 11 C0 4.5 0 4.5 0 0 Z " fill="#C2C2B0" transform="translate(169,117)"/>
<path d="M0 0 C2.3125 0.125 2.3125 0.125 5 1 C7.36101949 4.66365093 8 6.59781468 8 11 C6.25 10.9375 6.25 10.9375 4 10 C1.55272534 6.7838181 0 4.07605096 0 0 Z " fill="#C2C2B0" transform="translate(154,117)"/>
<path d="M0 0 C1.75 0.0625 1.75 0.0625 4 1 C6.44727466 4.2161819 8 6.92394904 8 11 C6.68 11 5.36 11 4 11 C0 4.5 0 4.5 0 0 Z " fill="#C2C2B0" transform="translate(133,117)"/>
<path d="M0 0 C1.32 0 2.64 0 4 0 C3.39301257 4.12751449 1.96189209 7.3321148 0 11 C-1.32 11 -2.64 11 -4 11 C-3.39301257 6.87248551 -1.96189209 3.6678852 0 0 Z " fill="#C2C2B0" transform="translate(108,117)"/>
<path d="M0 0 C1.32 0 2.64 0 4 0 C3.39301257 4.12751449 1.96189209 7.3321148 0 11 C-1.32 11 -2.64 11 -4 11 C-3.39301257 6.87248551 -1.96189209 3.6678852 0 0 Z " fill="#C2C2B0" transform="translate(79,117)"/>
<path d="M0 0 C1.32 0 2.64 0 4 0 C4.67408308 1.26691507 5.33900497 2.53870749 6 3.8125 C6.556875 4.87404297 6.556875 4.87404297 7.125 5.95703125 C8 8 8 8 8 11 C6.68 11 5.36 11 4 11 C3.32591692 9.73308493 2.66099503 8.46129251 2 7.1875 C1.62875 6.47980469 1.2575 5.77210937 0.875 5.04296875 C0 3 0 3 0 0 Z " fill="#C2C2B0" transform="translate(32,117)"/>
<path d="M0 0 C2.3125 0.125 2.3125 0.125 5 1 C7.36101949 4.66365093 8 6.59781468 8 11 C6.25 10.9375 6.25 10.9375 4 10 C1.55272534 6.7838181 0 4.07605096 0 0 Z " fill="#C2C2B0" transform="translate(651,103)"/>
<path d="M0 0 C1.75 0.0625 1.75 0.0625 4 1 C6.44727466 4.2161819 8 6.92394904 8 11 C6.68 11 5.36 11 4 11 C0 4.5 0 4.5 0 0 Z " fill="#C2C2B0" transform="translate(637,103)"/>
<path d="M0 0 C2.3125 0.125 2.3125 0.125 5 1 C7.36101949 4.66365093 8 6.59781468 8 11 C6.25 10.9375 6.25 10.9375 4 10 C1.55272534 6.7838181 0 4.07605096 0 0 Z " fill="#C2C2B0" transform="translate(615,103)"/>
<path d="M0 0 C1.32 0 2.64 0 4 0 C3.46972205 4.5073626 1.80388725 7.4539073 -1 11 C-1.99 11 -2.98 11 -4 11 C-3.39301257 6.87248551 -1.96189209 3.6678852 0 0 Z " fill="#C2C2B0" transform="translate(605,103)"/>
<path d="M0 0 C1.32 0 2.64 0 4 0 C4.67408308 1.26691507 5.33900497 2.53870749 6 3.8125 C6.556875 4.87404297 6.556875 4.87404297 7.125 5.95703125 C8 8 8 8 8 11 C6.68 11 5.36 11 4 11 C3.32591692 9.73308493 2.66099503 8.46129251 2 7.1875 C1.62875 6.47980469 1.2575 5.77210937 0.875 5.04296875 C0 3 0 3 0 0 Z " fill="#C2C2B0" transform="translate(536,103)"/>
<path d="M0 0 C1.32 0 2.64 0 4 0 C4.67408308 1.26691507 5.33900497 2.53870749 6 3.8125 C6.556875 4.87404297 6.556875 4.87404297 7.125 5.95703125 C8 8 8 8 8 11 C6.68 11 5.36 11 4 11 C3.32591692 9.73308493 2.66099503 8.46129251 2 7.1875 C1.62875 6.47980469 1.2575 5.77210937 0.875 5.04296875 C0 3 0 3 0 0 Z " fill="#C2C2B0" transform="translate(428,103)"/>
<path d="M0 0 C0.99 0 1.98 0 3 0 C2.49646154 4.33043075 1.74386457 7.54476313 -1 11 C-2.32 11 -3.64 11 -5 11 C-4.32902328 6.80639551 -2.1441606 3.59665648 0 0 Z " fill="#C2C2B0" transform="translate(404,103)"/>
<path d="M0 0 C2.3125 0.125 2.3125 0.125 5 1 C7.36101949 4.66365093 8 6.59781468 8 11 C6.25 10.9375 6.25 10.9375 4 10 C1.55272534 6.7838181 0 4.07605096 0 0 Z " fill="#C2C2B0" transform="translate(363,103)"/>
<path d="M0 0 C1.75 0.0625 1.75 0.0625 4 1 C6.44727466 4.2161819 8 6.92394904 8 11 C6.68 11 5.36 11 4 11 C0 4.5 0 4.5 0 0 Z " fill="#C2C2B0" transform="translate(349,103)"/>
<path d="M0 0 C2.3125 0.125 2.3125 0.125 5 1 C7.36101949 4.66365093 8 6.59781468 8 11 C6.25 10.9375 6.25 10.9375 4 10 C1.55272534 6.7838181 0 4.07605096 0 0 Z " fill="#C2C2B0" transform="translate(327,103)"/>
<path d="M0 0 C0.99 0 1.98 0 3 0 C2.49646154 4.33043075 1.74386457 7.54476313 -1 11 C-2.32 11 -3.64 11 -5 11 C-4.32902328 6.80639551 -2.1441606 3.59665648 0 0 Z " fill="#C2C2B0" transform="translate(296,103)"/>
<path d="M0 0 C2.3125 0.125 2.3125 0.125 5 1 C7.36101949 4.66365093 8 6.59781468 8 11 C6.25 10.9375 6.25 10.9375 4 10 C1.55272534 6.7838181 0 4.07605096 0 0 Z " fill="#C2C2B0" transform="translate(255,103)"/>
<path d="M0 0 C1.32 0 2.64 0 4 0 C3.39301257 4.12751449 1.96189209 7.3321148 0 11 C-1.32 11 -2.64 11 -4 11 C-3.39301257 6.87248551 -1.96189209 3.6678852 0 0 Z " fill="#C2C2B0" transform="translate(216,103)"/>
<path d="M0 0 C1.32 0 2.64 0 4 0 C3.39301257 4.12751449 1.96189209 7.3321148 0 11 C-1.32 11 -2.64 11 -4 11 C-3.39301257 6.87248551 -1.96189209 3.6678852 0 0 Z " fill="#C2C2B0" transform="translate(180,103)"/>
<path d="M0 0 C1.32 0 2.64 0 4 0 C4.67408308 1.26691507 5.33900497 2.53870749 6 3.8125 C6.556875 4.87404297 6.556875 4.87404297 7.125 5.95703125 C8 8 8 8 8 11 C6.68 11 5.36 11 4 11 C3.32591692 9.73308493 2.66099503 8.46129251 2 7.1875 C1.62875 6.47980469 1.2575 5.77210937 0.875 5.04296875 C0 3 0 3 0 0 Z " fill="#C2C2B0" transform="translate(147,103)"/>
<path d="M0 0 C1.32 0 2.64 0 4 0 C3.39301257 4.12751449 1.96189209 7.3321148 0 11 C-1.32 11 -2.64 11 -4 11 C-3.39301257 6.87248551 -1.96189209 3.6678852 0 0 Z " fill="#C2C2B0" transform="translate(115,103)"/>
<path d="M0 0 C0.99 0 1.98 0 3 0 C2.49646154 4.33043075 1.74386457 7.54476313 -1 11 C-2.32 11 -3.64 11 -5 11 C-4.32902328 6.80639551 -2.1441606 3.59665648 0 0 Z " fill="#C2C2B0" transform="translate(87,103)"/>
<path d="M0 0 C2.3125 0.125 2.3125 0.125 5 1 C7.36101949 4.66365093 8 6.59781468 8 11 C6.25 10.9375 6.25 10.9375 4 10 C1.55272534 6.7838181 0 4.07605096 0 0 Z " fill="#C2C2B0" transform="translate(46,103)"/>
<path d="M0 0 C1.75 0.0625 1.75 0.0625 4 1 C6.44727466 4.2161819 8 6.92394904 8 11 C6.68 11 5.36 11 4 11 C0 4.5 0 4.5 0 0 Z " fill="#C2C2B0" transform="translate(25,103)"/>
<path d="M0 0 C2.3125 0.125 2.3125 0.125 5 1 C7.36101949 4.66365093 8 6.59781468 8 11 C6.25 10.9375 6.25 10.9375 4 10 C1.55272534 6.7838181 0 4.07605096 0 0 Z " fill="#C2C2B0" transform="translate(687,89)"/>
<path d="M0 0 C1.75 0.0625 1.75 0.0625 4 1 C6.44727466 4.2161819 8 6.92394904 8 11 C6.68 11 5.36 11 4 11 C0 4.5 0 4.5 0 0 Z " fill="#C2C2B0" transform="translate(673,89)"/>
<path d="M0 0 C0.99 0 1.98 0 3 0 C2.49646154 4.33043075 1.74386457 7.54476313 -1 11 C-2.32 11 -3.64 11 -5 11 C-4.32902328 6.80639551 -2.1441606 3.59665648 0 0 Z " fill="#C2C2B0" transform="translate(620,89)"/>
<path d="M0 0 C1.32 0 2.64 0 4 0 C3.46972205 4.5073626 1.80388725 7.4539073 -1 11 C-1.99 11 -2.98 11 -4 11 C-3.39301257 6.87248551 -1.96189209 3.6678852 0 0 Z " fill="#C2C2B0" transform="translate(497,89)"/>
<path d="M0 0 C1.32 0 2.64 0 4 0 C3.39301257 4.12751449 1.96189209 7.3321148 0 11 C-1.32 11 -2.64 11 -4 11 C-3.39301257 6.87248551 -1.96189209 3.6678852 0 0 Z " fill="#C2C2B0" transform="translate(468,89)"/>
<path d="M0 0 C1.32 0 2.64 0 4 0 C3.39301257 4.12751449 1.96189209 7.3321148 0 11 C-1.32 11 -2.64 11 -4 11 C-3.39301257 6.87248551 -1.96189209 3.6678852 0 0 Z " fill="#C2C2B0" transform="translate(432,89)"/>
<path d="M0 0 C2.3125 0.125 2.3125 0.125 5 1 C7.36101949 4.66365093 8 6.59781468 8 11 C6.25 10.9375 6.25 10.9375 4 10 C1.55272534 6.7838181 0 4.07605096 0 0 Z " fill="#C2C2B0" transform="translate(399,89)"/>
<path d="M0 0 C0.99 0 1.98 0 3 0 C2.49646154 4.33043075 1.74386457 7.54476313 -1 11 C-2.32 11 -3.64 11 -5 11 C-4.32902328 6.80639551 -2.1441606 3.59665648 0 0 Z " fill="#C2C2B0" transform="translate(368,89)"/>
<path d="M0 0 C0.99 0 1.98 0 3 0 C2.49646154 4.33043075 1.74386457 7.54476313 -1 11 C-2.32 11 -3.64 11 -5 11 C-4.32902328 6.80639551 -2.1441606 3.59665648 0 0 Z " fill="#C2C2B0" transform="translate(332,89)"/>
<path d="M0 0 C0.99 0 1.98 0 3 0 C2.49646154 4.33043075 1.74386457 7.54476313 -1 11 C-2.32 11 -3.64 11 -5 11 C-4.32902328 6.80639551 -2.1441606 3.59665648 0 0 Z " fill="#C2C2B0" transform="translate(303,89)"/>
<path d="M0 0 C1.32 0 2.64 0 4 0 C3.46972205 4.5073626 1.80388725 7.4539073 -1 11 C-1.99 11 -2.98 11 -4 11 C-3.39301257 6.87248551 -1.96189209 3.6678852 0 0 Z " fill="#C2C2B0" transform="translate(281,89)"/>
<path d="M0 0 C2.3125 0.125 2.3125 0.125 5 1 C7.36101949 4.66365093 8 6.59781468 8 11 C6.25 10.9375 6.25 10.9375 4 10 C1.55272534 6.7838181 0 4.07605096 0 0 Z " fill="#C2C2B0" transform="translate(262,89)"/>
<path d="M0 0 C1.32 0 2.64 0 4 0 C4.67408308 1.26691507 5.33900497 2.53870749 6 3.8125 C6.556875 4.87404297 6.556875 4.87404297 7.125 5.95703125 C8 8 8 8 8 11 C6.68 11 5.36 11 4 11 C3.32591692 9.73308493 2.66099503 8.46129251 2 7.1875 C1.62875 6.47980469 1.2575 5.77210937 0.875 5.04296875 C0 3 0 3 0 0 Z " fill="#C2C2B0" transform="translate(248,89)"/>
<path d="M0 0 C2.3125 0.125 2.3125 0.125 5 1 C7.36101949 4.66365093 8 6.59781468 8 11 C6.25 10.9375 6.25 10.9375 4 10 C1.55272534 6.7838181 0 4.07605096 0 0 Z " fill="#C2C2B0" transform="translate(226,89)"/>
<path d="M0 0 C1.32 0 2.64 0 4 0 C4.67408308 1.26691507 5.33900497 2.53870749 6 3.8125 C6.556875 4.87404297 6.556875 4.87404297 7.125 5.95703125 C8 8 8 8 8 11 C6.68 11 5.36 11 4 11 C3.32591692 9.73308493 2.66099503 8.46129251 2 7.1875 C1.62875 6.47980469 1.2575 5.77210937 0.875 5.04296875 C0 3 0 3 0 0 Z " fill="#C2C2B0" transform="translate(212,89)"/>
<path d="M0 0 C1.32 0 2.64 0 4 0 C4.67408308 1.26691507 5.33900497 2.53870749 6 3.8125 C6.556875 4.87404297 6.556875 4.87404297 7.125 5.95703125 C8 8 8 8 8 11 C6.68 11 5.36 11 4 11 C3.32591692 9.73308493 2.66099503 8.46129251 2 7.1875 C1.62875 6.47980469 1.2575 5.77210937 0.875 5.04296875 C0 3 0 3 0 0 Z " fill="#C2C2B0" transform="translate(111,89)"/>
<path d="M0 0 C1.32 0 2.64 0 4 0 C3.39301257 4.12751449 1.96189209 7.3321148 0 11 C-1.32 11 -2.64 11 -4 11 C-3.39301257 6.87248551 -1.96189209 3.6678852 0 0 Z " fill="#C2C2B0" transform="translate(79,89)"/>
<path d="M0 0 C1.32 0 2.64 0 4 0 C3.46972205 4.5073626 1.80388725 7.4539073 -1 11 C-1.99 11 -2.98 11 -4 11 C-3.39301257 6.87248551 -1.96189209 3.6678852 0 0 Z " fill="#C2C2B0" transform="translate(65,89)"/>
<path d="M0 0 C1.32 0 2.64 0 4 0 C3.46972205 4.5073626 1.80388725 7.4539073 -1 11 C-1.99 11 -2.98 11 -4 11 C-3.39301257 6.87248551 -1.96189209 3.6678852 0 0 Z " fill="#C2C2B0" transform="translate(29,89)"/>
<path d="M0 0 C1.32 0 2.64 0 4 0 C4.67408308 1.26691507 5.33900497 2.53870749 6 3.8125 C6.556875 4.87404297 6.556875 4.87404297 7.125 5.95703125 C8 8 8 8 8 11 C6.68 11 5.36 11 4 11 C3.32591692 9.73308493 2.66099503 8.46129251 2 7.1875 C1.62875 6.47980469 1.2575 5.77210937 0.875 5.04296875 C0 3 0 3 0 0 Z " fill="#C2C2B0" transform="translate(680,75)"/>
<path d="M0 0 C2.3125 0.125 2.3125 0.125 5 1 C7.36101949 4.66365093 8 6.59781468 8 11 C6.25 10.9375 6.25 10.9375 4 10 C1.55272534 6.7838181 0 4.07605096 0 0 Z " fill="#C2C2B0" transform="translate(651,75)"/>
<path d="M0 0 C1.32 0 2.64 0 4 0 C3.39301257 4.12751449 1.96189209 7.3321148 0 11 C-1.32 11 -2.64 11 -4 11 C-3.39301257 6.87248551 -1.96189209 3.6678852 0 0 Z " fill="#C2C2B0" transform="translate(504,75)"/>
<path d="M0 0 C0.99 0 1.98 0 3 0 C2.49646154 4.33043075 1.74386457 7.54476313 -1 11 C-2.32 11 -3.64 11 -5 11 C-4.32902328 6.80639551 -2.1441606 3.59665648 0 0 Z " fill="#C2C2B0" transform="translate(476,75)"/>
<path d="M0 0 C1.32 0 2.64 0 4 0 C3.46972205 4.5073626 1.80388725 7.4539073 -1 11 C-1.99 11 -2.98 11 -4 11 C-3.39301257 6.87248551 -1.96189209 3.6678852 0 0 Z " fill="#C2C2B0" transform="translate(461,75)"/>
<path d="M0 0 C0.99 0 1.98 0 3 0 C2.49646154 4.33043075 1.74386457 7.54476313 -1 11 C-2.32 11 -3.64 11 -5 11 C-4.32902328 6.80639551 -2.1441606 3.59665648 0 0 Z " fill="#C2C2B0" transform="translate(440,75)"/>
<path d="M0 0 C2.3125 0.125 2.3125 0.125 5 1 C7.36101949 4.66365093 8 6.59781468 8 11 C6.25 10.9375 6.25 10.9375 4 10 C1.55272534 6.7838181 0 4.07605096 0 0 Z " fill="#C2C2B0" transform="translate(406,75)"/>
<path d="M0 0 C1.32 0 2.64 0 4 0 C4.67408308 1.26691507 5.33900497 2.53870749 6 3.8125 C6.556875 4.87404297 6.556875 4.87404297 7.125 5.95703125 C8 8 8 8 8 11 C6.68 11 5.36 11 4 11 C3.32591692 9.73308493 2.66099503 8.46129251 2 7.1875 C1.62875 6.47980469 1.2575 5.77210937 0.875 5.04296875 C0 3 0 3 0 0 Z " fill="#C2C2B0" transform="translate(392,75)"/>
<path d="M0 0 C0.99 0 1.98 0 3 0 C2.49646154 4.33043075 1.74386457 7.54476313 -1 11 C-2.32 11 -3.64 11 -5 11 C-4.32902328 6.80639551 -2.1441606 3.59665648 0 0 Z " fill="#C2C2B0" transform="translate(375,75)"/>
<path d="M0 0 C1.32 0 2.64 0 4 0 C3.39301257 4.12751449 1.96189209 7.3321148 0 11 C-1.32 11 -2.64 11 -4 11 C-3.39301257 6.87248551 -1.96189209 3.6678852 0 0 Z " fill="#C2C2B0" transform="translate(360,75)"/>
<path d="M0 0 C0.99 0 1.98 0 3 0 C2.49646154 4.33043075 1.74386457 7.54476313 -1 11 C-2.32 11 -3.64 11 -5 11 C-4.32902328 6.80639551 -2.1441606 3.59665648 0 0 Z " fill="#C2C2B0" transform="translate(339,75)"/>
<path d="M0 0 C2.3125 0.125 2.3125 0.125 5 1 C7.36101949 4.66365093 8 6.59781468 8 11 C6.25 10.9375 6.25 10.9375 4 10 C1.55272534 6.7838181 0 4.07605096 0 0 Z " fill="#C2C2B0" transform="translate(298,75)"/>
<path d="M0 0 C0.99 0 1.98 0 3 0 C2.49646154 4.33043075 1.74386457 7.54476313 -1 11 C-2.32 11 -3.64 11 -5 11 C-4.32902328 6.80639551 -2.1441606 3.59665648 0 0 Z " fill="#C2C2B0" transform="translate(267,75)"/>
<path d="M0 0 C0.99 0 1.98 0 3 0 C2.49646154 4.33043075 1.74386457 7.54476313 -1 11 C-2.32 11 -3.64 11 -5 11 C-4.32902328 6.80639551 -2.1441606 3.59665648 0 0 Z " fill="#C2C2B0" transform="translate(231,75)"/>
<path d="M0 0 C1.75 0.0625 1.75 0.0625 4 1 C6.44727466 4.2161819 8 6.92394904 8 11 C6.68 11 5.36 11 4 11 C0 4.5 0 4.5 0 0 Z " fill="#C2C2B0" transform="translate(205,75)"/>
<path d="M0 0 C2.3125 0.125 2.3125 0.125 5 1 C7.36101949 4.66365093 8 6.59781468 8 11 C6.25 10.9375 6.25 10.9375 4 10 C1.55272534 6.7838181 0 4.07605096 0 0 Z " fill="#C2C2B0" transform="translate(190,75)"/>
<path d="M0 0 C1.75 0.0625 1.75 0.0625 4 1 C6.44727466 4.2161819 8 6.92394904 8 11 C6.68 11 5.36 11 4 11 C0 4.5 0 4.5 0 0 Z " fill="#C2C2B0" transform="translate(169,75)"/>
<path d="M0 0 C1.32 0 2.64 0 4 0 C4.67408308 1.26691507 5.33900497 2.53870749 6 3.8125 C6.556875 4.87404297 6.556875 4.87404297 7.125 5.95703125 C8 8 8 8 8 11 C6.68 11 5.36 11 4 11 C3.32591692 9.73308493 2.66099503 8.46129251 2 7.1875 C1.62875 6.47980469 1.2575 5.77210937 0.875 5.04296875 C0 3 0 3 0 0 Z " fill="#C2C2B0" transform="translate(104,75)"/>
<path d="M0 0 C0.99 0 1.98 0 3 0 C2.49646154 4.33043075 1.74386457 7.54476313 -1 11 C-2.32 11 -3.64 11 -5 11 C-4.32902328 6.80639551 -2.1441606 3.59665648 0 0 Z " fill="#C2C2B0" transform="translate(87,75)"/>
<path d="M0 0 C1.32 0 2.64 0 4 0 C3.39301257 4.12751449 1.96189209 7.3321148 0 11 C-1.32 11 -2.64 11 -4 11 C-3.39301257 6.87248551 -1.96189209 3.6678852 0 0 Z " fill="#C2C2B0" transform="translate(72,75)"/>
<path d="M0 0 C1.32 0 2.64 0 4 0 C3.39301257 4.12751449 1.96189209 7.3321148 0 11 C-1.32 11 -2.64 11 -4 11 C-3.39301257 6.87248551 -1.96189209 3.6678852 0 0 Z " fill="#C2C2B0" transform="translate(36,75)"/>
<path d="M0 0 C2.3125 0.125 2.3125 0.125 5 1 C7.36101949 4.66365093 8 6.59781468 8 11 C6.25 10.9375 6.25 10.9375 4 10 C1.55272534 6.7838181 0 4.07605096 0 0 Z " fill="#C2C2B0" transform="translate(687,61)"/>
<path d="M0 0 C1.75 0.0625 1.75 0.0625 4 1 C6.44727466 4.2161819 8 6.92394904 8 11 C6.68 11 5.36 11 4 11 C0 4.5 0 4.5 0 0 Z " fill="#C2C2B0" transform="translate(673,61)"/>
<path d="M0 0 C1.32 0 2.64 0 4 0 C4.67408308 1.26691507 5.33900497 2.53870749 6 3.8125 C6.556875 4.87404297 6.556875 4.87404297 7.125 5.95703125 C8 8 8 8 8 11 C6.68 11 5.36 11 4 11 C3.32591692 9.73308493 2.66099503 8.46129251 2 7.1875 C1.62875 6.47980469 1.2575 5.77210937 0.875 5.04296875 C0 3 0 3 0 0 Z " fill="#C2C2B0" transform="translate(500,61)"/>
<path d="M0 0 C1.32 0 2.64 0 4 0 C3.39301257 4.12751449 1.96189209 7.3321148 0 11 C-1.32 11 -2.64 11 -4 11 C-3.39301257 6.87248551 -1.96189209 3.6678852 0 0 Z " fill="#C2C2B0" transform="translate(468,61)"/>
<path d="M0 0 C0.99 0 1.98 0 3 0 C2.49646154 4.33043075 1.74386457 7.54476313 -1 11 C-2.32 11 -3.64 11 -5 11 C-4.32902328 6.80639551 -2.1441606 3.59665648 0 0 Z " fill="#C2C2B0" transform="translate(447,61)"/>
<path d="M0 0 C2.3125 0.125 2.3125 0.125 5 1 C7.36101949 4.66365093 8 6.59781468 8 11 C6.25 10.9375 6.25 10.9375 4 10 C1.55272534 6.7838181 0 4.07605096 0 0 Z " fill="#C2C2B0" transform="translate(399,61)"/>
<path d="M0 0 C0.99 0 1.98 0 3 0 C2.49646154 4.33043075 1.74386457 7.54476313 -1 11 C-2.32 11 -3.64 11 -5 11 C-4.32902328 6.80639551 -2.1441606 3.59665648 0 0 Z " fill="#C2C2B0" transform="translate(368,61)"/>
<path d="M0 0 C2.3125 0.125 2.3125 0.125 5 1 C7.36101949 4.66365093 8 6.59781468 8 11 C6.25 10.9375 6.25 10.9375 4 10 C1.55272534 6.7838181 0 4.07605096 0 0 Z " fill="#C2C2B0" transform="translate(291,61)"/>
<path d="M0 0 C0.99 0 1.98 0 3 0 C2.49646154 4.33043075 1.74386457 7.54476313 -1 11 C-2.32 11 -3.64 11 -5 11 C-4.32902328 6.80639551 -2.1441606 3.59665648 0 0 Z " fill="#C2C2B0" transform="translate(260,61)"/>
<path d="M0 0 C2.3125 0.125 2.3125 0.125 5 1 C7.36101949 4.66365093 8 6.59781468 8 11 C6.25 10.9375 6.25 10.9375 4 10 C1.55272534 6.7838181 0 4.07605096 0 0 Z " fill="#C2C2B0" transform="translate(183,61)"/>
<path d="M0 0 C1.32 0 2.64 0 4 0 C3.39301257 4.12751449 1.96189209 7.3321148 0 11 C-1.32 11 -2.64 11 -4 11 C-3.39301257 6.87248551 -1.96189209 3.6678852 0 0 Z " fill="#C2C2B0" transform="translate(79,61)"/>
<path d="M0 0 C1.32 0 2.64 0 4 0 C3.46972205 4.5073626 1.80388725 7.4539073 -1 11 C-1.99 11 -2.98 11 -4 11 C-3.39301257 6.87248551 -1.96189209 3.6678852 0 0 Z " fill="#C2C2B0" transform="translate(65,61)"/>
<path d="M0 0 C1.32 0 2.64 0 4 0 C3.39301257 4.12751449 1.96189209 7.3321148 0 11 C-1.32 11 -2.64 11 -4 11 C-3.39301257 6.87248551 -1.96189209 3.6678852 0 0 Z " fill="#C2C2B0" transform="translate(43,61)"/>
<path d="M0 0 C1.32 0 2.64 0 4 0 C4.67408308 1.26691507 5.33900497 2.53870749 6 3.8125 C6.556875 4.87404297 6.556875 4.87404297 7.125 5.95703125 C8 8 8 8 8 11 C6.68 11 5.36 11 4 11 C3.32591692 9.73308493 2.66099503 8.46129251 2 7.1875 C1.62875 6.47980469 1.2575 5.77210937 0.875 5.04296875 C0 3 0 3 0 0 Z " fill="#C2C2B0" transform="translate(680,47)"/>
<path d="M0 0 C1.75 0.0625 1.75 0.0625 4 1 C6.44727466 4.2161819 8 6.92394904 8 11 C6.68 11 5.36 11 4 11 C0 4.5 0 4.5 0 0 Z " fill="#C2C2B0" transform="translate(493,47)"/>
<path d="M0 0 C0.99 0 1.98 0 3 0 C2.49646154 4.33043075 1.74386457 7.54476313 -1 11 C-2.32 11 -3.64 11 -5 11 C-4.32902328 6.80639551 -2.1441606 3.59665648 0 0 Z " fill="#C2C2B0" transform="translate(476,47)"/>
<path d="M0 0 C1.32 0 2.64 0 4 0 C4.67408308 1.26691507 5.33900497 2.53870749 6 3.8125 C6.556875 4.87404297 6.556875 4.87404297 7.125 5.95703125 C8 8 8 8 8 11 C6.68 11 5.36 11 4 11 C3.32591692 9.73308493 2.66099503 8.46129251 2 7.1875 C1.62875 6.47980469 1.2575 5.77210937 0.875 5.04296875 C0 3 0 3 0 0 Z " fill="#C2C2B0" transform="translate(392,47)"/>
<path d="M0 0 C0.99 0 1.98 0 3 0 C2.49646154 4.33043075 1.74386457 7.54476313 -1 11 C-2.32 11 -3.64 11 -5 11 C-4.32902328 6.80639551 -2.1441606 3.59665648 0 0 Z " fill="#C2C2B0" transform="translate(375,47)"/>
<path d="M0 0 C1.32 0 2.64 0 4 0 C3.46972205 4.5073626 1.80388725 7.4539073 -1 11 C-1.99 11 -2.98 11 -4 11 C-3.39301257 6.87248551 -1.96189209 3.6678852 0 0 Z " fill="#C2C2B0" transform="translate(353,47)"/>
<path d="M0 0 C2.3125 0.125 2.3125 0.125 5 1 C7.36101949 4.66365093 8 6.59781468 8 11 C6.25 10.9375 6.25 10.9375 4 10 C1.55272534 6.7838181 0 4.07605096 0 0 Z " fill="#C2C2B0" transform="translate(298,47)"/>
<path d="M0 0 C0.99 0 1.98 0 3 0 C2.49646154 4.33043075 1.74386457 7.54476313 -1 11 C-2.32 11 -3.64 11 -5 11 C-4.32902328 6.80639551 -2.1441606 3.59665648 0 0 Z " fill="#C2C2B0" transform="translate(267,47)"/>
<path d="M0 0 C1.32 0 2.64 0 4 0 C3.46972205 4.5073626 1.80388725 7.4539073 -1 11 C-1.99 11 -2.98 11 -4 11 C-3.39301257 6.87248551 -1.96189209 3.6678852 0 0 Z " fill="#C2C2B0" transform="translate(245,47)"/>
<path d="M0 0 C2.3125 0.125 2.3125 0.125 5 1 C7.36101949 4.66365093 8 6.59781468 8 11 C6.25 10.9375 6.25 10.9375 4 10 C1.55272534 6.7838181 0 4.07605096 0 0 Z " fill="#C2C2B0" transform="translate(190,47)"/>
<path d="M0 0 C1.32 0 2.64 0 4 0 C4.67408308 1.26691507 5.33900497 2.53870749 6 3.8125 C6.556875 4.87404297 6.556875 4.87404297 7.125 5.95703125 C8 8 8 8 8 11 C6.68 11 5.36 11 4 11 C3.32591692 9.73308493 2.66099503 8.46129251 2 7.1875 C1.62875 6.47980469 1.2575 5.77210937 0.875 5.04296875 C0 3 0 3 0 0 Z " fill="#C2C2B0" transform="translate(176,47)"/>
<path d="M0 0 C2.3125 0.125 2.3125 0.125 5 1 C7.36101949 4.66365093 8 6.59781468 8 11 C6.25 10.9375 6.25 10.9375 4 10 C1.55272534 6.7838181 0 4.07605096 0 0 Z " fill="#C2C2B0" transform="translate(154,47)"/>
<path d="M0 0 C0.99 0 1.98 0 3 0 C2.49646154 4.33043075 1.74386457 7.54476313 -1 11 C-2.32 11 -3.64 11 -5 11 C-4.32902328 6.80639551 -2.1441606 3.59665648 0 0 Z " fill="#C2C2B0" transform="translate(87,47)"/>
<path d="M0 0 C1.32 0 2.64 0 4 0 C3.39301257 4.12751449 1.96189209 7.3321148 0 11 C-1.32 11 -2.64 11 -4 11 C-3.39301257 6.87248551 -1.96189209 3.6678852 0 0 Z " fill="#C2C2B0" transform="translate(72,47)"/>
<path d="M0 0 C0.99 0 1.98 0 3 0 C2.49646154 4.33043075 1.74386457 7.54476313 -1 11 C-2.32 11 -3.64 11 -5 11 C-4.32902328 6.80639551 -2.1441606 3.59665648 0 0 Z " fill="#C2C2B0" transform="translate(51,47)"/>
<path d="M0 0 C1.32 0 2.64 0 4 0 C3.39301257 4.12751449 1.96189209 7.3321148 0 11 C-1.32 11 -2.64 11 -4 11 C-3.39301257 6.87248551 -1.96189209 3.6678852 0 0 Z " fill="#C2C2B0" transform="translate(648,33)"/>
<path d="M0 0 C0.99 0 1.98 0 3 0 C2.49646154 4.33043075 1.74386457 7.54476313 -1 11 C-2.32 11 -3.64 11 -5 11 C-4.32902328 6.80639551 -2.1441606 3.59665648 0 0 Z " fill="#C2C2B0" transform="translate(548,33)"/>
<path d="M0 0 C1.32 0 2.64 0 4 0 C3.46972205 4.5073626 1.80388725 7.4539073 -1 11 C-1.99 11 -2.98 11 -4 11 C-3.39301257 6.87248551 -1.96189209 3.6678852 0 0 Z " fill="#C2C2B0" transform="translate(461,33)"/>
<path d="M0 0 C1.32 0 2.64 0 4 0 C3.39301257 4.12751449 1.96189209 7.3321148 0 11 C-1.32 11 -2.64 11 -4 11 C-3.39301257 6.87248551 -1.96189209 3.6678852 0 0 Z " fill="#C2C2B0" transform="translate(360,33)"/>
<path d="M0 0 C2.3125 0.125 2.3125 0.125 5 1 C7.36101949 4.66365093 8 6.59781468 8 11 C6.25 10.9375 6.25 10.9375 4 10 C1.55272534 6.7838181 0 4.07605096 0 0 Z " fill="#C2C2B0" transform="translate(291,33)"/>
<path d="M0 0 C1.32 0 2.64 0 4 0 C3.39301257 4.12751449 1.96189209 7.3321148 0 11 C-1.32 11 -2.64 11 -4 11 C-3.39301257 6.87248551 -1.96189209 3.6678852 0 0 Z " fill="#C2C2B0" transform="translate(252,33)"/>
<path d="M0 0 C0.99 0 1.98 0 3 0 C2.49646154 4.33043075 1.74386457 7.54476313 -1 11 C-2.32 11 -3.64 11 -5 11 C-4.32902328 6.80639551 -2.1441606 3.59665648 0 0 Z " fill="#C2C2B0" transform="translate(159,33)"/>
<path d="M0 0 C1.8125 0.125 1.8125 0.125 4 1 C6.28905989 4.67884625 7 6.61551956 7 11 C5.1875 10.875 5.1875 10.875 3 10 C0.71094011 6.32115375 0 4.38448044 0 0 Z " fill="#C2C2B0" transform="translate(659,145)"/>
<path d="M0 0 C1.8125 0.125 1.8125 0.125 4 1 C6.28905989 4.67884625 7 6.61551956 7 11 C5.1875 10.875 5.1875 10.875 3 10 C0.71094011 6.32115375 0 4.38448044 0 0 Z " fill="#C2C2B0" transform="translate(558,145)"/>
<path d="M0 0 C1.8125 0.125 1.8125 0.125 4 1 C6.28905989 4.67884625 7 6.61551956 7 11 C5.1875 10.875 5.1875 10.875 3 10 C0.71094011 6.32115375 0 4.38448044 0 0 Z " fill="#C2C2B0" transform="translate(486,145)"/>
<path d="M0 0 C1.8125 0.125 1.8125 0.125 4 1 C6.28905989 4.67884625 7 6.61551956 7 11 C5.1875 10.875 5.1875 10.875 3 10 C0.71094011 6.32115375 0 4.38448044 0 0 Z " fill="#C2C2B0" transform="translate(450,145)"/>
<path d="M0 0 C0.99 0 1.98 0 3 0 C2.49516338 4.34159496 1.68099266 7.49408652 -1 11 C-1.99 11 -2.98 11 -4 11 C-3.49516338 6.65840504 -2.68099266 3.50591348 0 0 Z " fill="#C2C2B0" transform="translate(94,145)"/>
<path d="M0 0 C0.99 0 1.98 0 3 0 C2.49516338 4.34159496 1.68099266 7.49408652 -1 11 C-1.99 11 -2.98 11 -4 11 C-3.49516338 6.65840504 -2.68099266 3.50591348 0 0 Z " fill="#C2C2B0" transform="translate(58,145)"/>
<path d="M0 0 C1.8125 0.125 1.8125 0.125 4 1 C6.28905989 4.67884625 7 6.61551956 7 11 C5.1875 10.875 5.1875 10.875 3 10 C0.71094011 6.32115375 0 4.38448044 0 0 Z " fill="#C2C2B0" transform="translate(630,131)"/>
<path d="M0 0 C1.8125 0.125 1.8125 0.125 4 1 C6.28905989 4.67884625 7 6.61551956 7 11 C5.1875 10.875 5.1875 10.875 3 10 C0.71094011 6.32115375 0 4.38448044 0 0 Z " fill="#C2C2B0" transform="translate(551,131)"/>
<path d="M0 0 C1.8125 0.125 1.8125 0.125 4 1 C6.28905989 4.67884625 7 6.61551956 7 11 C5.1875 10.875 5.1875 10.875 3 10 C0.71094011 6.32115375 0 4.38448044 0 0 Z " fill="#C2C2B0" transform="translate(479,131)"/>
<path d="M0 0 C1.8125 0.125 1.8125 0.125 4 1 C6.28905989 4.67884625 7 6.61551956 7 11 C5.1875 10.875 5.1875 10.875 3 10 C0.71094011 6.32115375 0 4.38448044 0 0 Z " fill="#C2C2B0" transform="translate(342,131)"/>
<path d="M0 0 C1.8125 0.125 1.8125 0.125 4 1 C6.28905989 4.67884625 7 6.61551956 7 11 C5.1875 10.875 5.1875 10.875 3 10 C0.71094011 6.32115375 0 4.38448044 0 0 Z " fill="#C2C2B0" transform="translate(270,131)"/>
<path d="M0 0 C0.99 0 1.98 0 3 0 C2.49516338 4.34159496 1.68099266 7.49408652 -1 11 C-1.99 11 -2.98 11 -4 11 C-3.49516338 6.65840504 -2.68099266 3.50591348 0 0 Z " fill="#C2C2B0" transform="translate(202,131)"/>
<path d="M0 0 C1.8125 0.125 1.8125 0.125 4 1 C6.28905989 4.67884625 7 6.61551956 7 11 C5.1875 10.875 5.1875 10.875 3 10 C0.71094011 6.32115375 0 4.38448044 0 0 Z " fill="#C2C2B0" transform="translate(162,131)"/>
<path d="M0 0 C0.99 0 1.98 0 3 0 C2.49516338 4.34159496 1.68099266 7.49408652 -1 11 C-1.99 11 -2.98 11 -4 11 C-3.49516338 6.65840504 -2.68099266 3.50591348 0 0 Z " fill="#C2C2B0" transform="translate(699,117)"/>
<path d="M0 0 C1.8125 0.125 1.8125 0.125 4 1 C6.28905989 4.67884625 7 6.61551956 7 11 C5.1875 10.875 5.1875 10.875 3 10 C0.71094011 6.32115375 0 4.38448044 0 0 Z " fill="#C2C2B0" transform="translate(659,117)"/>
<path d="M0 0 C1.8125 0.125 1.8125 0.125 4 1 C6.28905989 4.67884625 7 6.61551956 7 11 C5.1875 10.875 5.1875 10.875 3 10 C0.71094011 6.32115375 0 4.38448044 0 0 Z " fill="#C2C2B0" transform="translate(623,117)"/>
<path d="M0 0 C1.8125 0.125 1.8125 0.125 4 1 C6.28905989 4.67884625 7 6.61551956 7 11 C5.1875 10.875 5.1875 10.875 3 10 C0.71094011 6.32115375 0 4.38448044 0 0 Z " fill="#C2C2B0" transform="translate(522,117)"/>
<path d="M0 0 C0.99 0 1.98 0 3 0 C2.49516338 4.34159496 1.68099266 7.49408652 -1 11 C-1.99 11 -2.98 11 -4 11 C-3.49516338 6.65840504 -2.68099266 3.50591348 0 0 Z " fill="#C2C2B0" transform="translate(483,117)"/>
<path d="M0 0 C0.99 0 1.98 0 3 0 C2.49516338 4.34159496 1.68099266 7.49408652 -1 11 C-1.99 11 -2.98 11 -4 11 C-3.49516338 6.65840504 -2.68099266 3.50591348 0 0 Z " fill="#C2C2B0" transform="translate(94,117)"/>
<path d="M0 0 C1.8125 0.125 1.8125 0.125 4 1 C6.28905989 4.67884625 7 6.61551956 7 11 C5.1875 10.875 5.1875 10.875 3 10 C0.71094011 6.32115375 0 4.38448044 0 0 Z " fill="#C2C2B0" transform="translate(54,117)"/>
<path d="M0 0 C0.99 0 1.98 0 3 0 C2.49516338 4.34159496 1.68099266 7.49408652 -1 11 C-1.99 11 -2.98 11 -4 11 C-3.49516338 6.65840504 -2.68099266 3.50591348 0 0 Z " fill="#C2C2B0" transform="translate(706,103)"/>
<path d="M0 0 C1.8125 0.125 1.8125 0.125 4 1 C6.28905989 4.67884625 7 6.61551956 7 11 C5.1875 10.875 5.1875 10.875 3 10 C0.71094011 6.32115375 0 4.38448044 0 0 Z " fill="#C2C2B0" transform="translate(666,103)"/>
<path d="M0 0 C1.8125 0.125 1.8125 0.125 4 1 C6.28905989 4.67884625 7 6.61551956 7 11 C5.1875 10.875 5.1875 10.875 3 10 C0.71094011 6.32115375 0 4.38448044 0 0 Z " fill="#C2C2B0" transform="translate(515,103)"/>
<path d="M0 0 C0.99 0 1.98 0 3 0 C2.49516338 4.34159496 1.68099266 7.49408652 -1 11 C-1.99 11 -2.98 11 -4 11 C-3.49516338 6.65840504 -2.68099266 3.50591348 0 0 Z " fill="#C2C2B0" transform="translate(490,103)"/>
<path d="M0 0 C1.8125 0.125 1.8125 0.125 4 1 C6.28905989 4.67884625 7 6.61551956 7 11 C5.1875 10.875 5.1875 10.875 3 10 C0.71094011 6.32115375 0 4.38448044 0 0 Z " fill="#C2C2B0" transform="translate(450,103)"/>
<path d="M0 0 C0.99 0 1.98 0 3 0 C2.49516338 4.34159496 1.68099266 7.49408652 -1 11 C-1.99 11 -2.98 11 -4 11 C-3.49516338 6.65840504 -2.68099266 3.50591348 0 0 Z " fill="#C2C2B0" transform="translate(418,103)"/>
<path d="M0 0 C0.99 0 1.98 0 3 0 C2.49516338 4.34159496 1.68099266 7.49408652 -1 11 C-1.99 11 -2.98 11 -4 11 C-3.49516338 6.65840504 -2.68099266 3.50591348 0 0 Z " fill="#C2C2B0" transform="translate(382,103)"/>
<path d="M0 0 C0.99 0 1.98 0 3 0 C2.49516338 4.34159496 1.68099266 7.49408652 -1 11 C-1.99 11 -2.98 11 -4 11 C-3.49516338 6.65840504 -2.68099266 3.50591348 0 0 Z " fill="#C2C2B0" transform="translate(310,103)"/>
<path d="M0 0 C1.8125 0.125 1.8125 0.125 4 1 C6.28905989 4.67884625 7 6.61551956 7 11 C5.1875 10.875 5.1875 10.875 3 10 C0.71094011 6.32115375 0 4.38448044 0 0 Z " fill="#C2C2B0" transform="translate(270,103)"/>
<path d="M0 0 C1.8125 0.125 1.8125 0.125 4 1 C6.28905989 4.67884625 7 6.61551956 7 11 C5.1875 10.875 5.1875 10.875 3 10 C0.71094011 6.32115375 0 4.38448044 0 0 Z " fill="#C2C2B0" transform="translate(234,103)"/>
<path d="M0 0 C0.99 0 1.98 0 3 0 C2.49516338 4.34159496 1.68099266 7.49408652 -1 11 C-1.99 11 -2.98 11 -4 11 C-3.49516338 6.65840504 -2.68099266 3.50591348 0 0 Z " fill="#C2C2B0" transform="translate(202,103)"/>
<path d="M0 0 C1.8125 0.125 1.8125 0.125 4 1 C6.28905989 4.67884625 7 6.61551956 7 11 C5.1875 10.875 5.1875 10.875 3 10 C0.71094011 6.32115375 0 4.38448044 0 0 Z " fill="#C2C2B0" transform="translate(162,103)"/>
<path d="M0 0 C1.8125 0.125 1.8125 0.125 4 1 C6.28905989 4.67884625 7 6.61551956 7 11 C5.1875 10.875 5.1875 10.875 3 10 C0.71094011 6.32115375 0 4.38448044 0 0 Z " fill="#C2C2B0" transform="translate(126,103)"/>
<path d="M0 0 C1.8125 0.125 1.8125 0.125 4 1 C6.28905989 4.67884625 7 6.61551956 7 11 C5.1875 10.875 5.1875 10.875 3 10 C0.71094011 6.32115375 0 4.38448044 0 0 Z " fill="#C2C2B0" transform="translate(702,89)"/>
<path d="M0 0 C1.8125 0.125 1.8125 0.125 4 1 C6.28905989 4.67884625 7 6.61551956 7 11 C5.1875 10.875 5.1875 10.875 3 10 C0.71094011 6.32115375 0 4.38448044 0 0 Z " fill="#C2C2B0" transform="translate(659,89)"/>
<path d="M0 0 C0.99 0 1.98 0 3 0 C2.49516338 4.34159496 1.68099266 7.49408652 -1 11 C-1.99 11 -2.98 11 -4 11 C-3.49516338 6.65840504 -2.68099266 3.50591348 0 0 Z " fill="#C2C2B0" transform="translate(519,89)"/>
<path d="M0 0 C0.99 0 1.98 0 3 0 C2.49516338 4.34159496 1.68099266 7.49408652 -1 11 C-1.99 11 -2.98 11 -4 11 C-3.49516338 6.65840504 -2.68099266 3.50591348 0 0 Z " fill="#C2C2B0" transform="translate(483,89)"/>
<path d="M0 0 C1.8125 0.125 1.8125 0.125 4 1 C6.28905989 4.67884625 7 6.61551956 7 11 C5.1875 10.875 5.1875 10.875 3 10 C0.71094011 6.32115375 0 4.38448044 0 0 Z " fill="#C2C2B0" transform="translate(414,89)"/>
<path d="M0 0 C1.8125 0.125 1.8125 0.125 4 1 C6.28905989 4.67884625 7 6.61551956 7 11 C5.1875 10.875 5.1875 10.875 3 10 C0.71094011 6.32115375 0 4.38448044 0 0 Z " fill="#C2C2B0" transform="translate(198,89)"/>
<path d="M0 0 C0.99 0 1.98 0 3 0 C2.49516338 4.34159496 1.68099266 7.49408652 -1 11 C-1.99 11 -2.98 11 -4 11 C-3.49516338 6.65840504 -2.68099266 3.50591348 0 0 Z " fill="#C2C2B0" transform="translate(130,89)"/>
<path d="M0 0 C1.8125 0.125 1.8125 0.125 4 1 C6.28905989 4.67884625 7 6.61551956 7 11 C5.1875 10.875 5.1875 10.875 3 10 C0.71094011 6.32115375 0 4.38448044 0 0 Z " fill="#C2C2B0" transform="translate(695,75)"/>
<path d="M0 0 C1.8125 0.125 1.8125 0.125 4 1 C6.28905989 4.67884625 7 6.61551956 7 11 C5.1875 10.875 5.1875 10.875 3 10 C0.71094011 6.32115375 0 4.38448044 0 0 Z " fill="#C2C2B0" transform="translate(666,75)"/>
<path d="M0 0 C0.99 0 1.98 0 3 0 C2.49516338 4.34159496 1.68099266 7.49408652 -1 11 C-1.99 11 -2.98 11 -4 11 C-3.49516338 6.65840504 -2.68099266 3.50591348 0 0 Z " fill="#C2C2B0" transform="translate(58,75)"/>
<path d="M0 0 C0.99 0 1.98 0 3 0 C2.49516338 4.34159496 1.68099266 7.49408652 -1 11 C-1.99 11 -2.98 11 -4 11 C-3.49516338 6.65840504 -2.68099266 3.50591348 0 0 Z " fill="#C2C2B0" transform="translate(634,61)"/>
<path d="M0 0 C0.99 0 1.98 0 3 0 C2.49516338 4.34159496 1.68099266 7.49408652 -1 11 C-1.99 11 -2.98 11 -4 11 C-3.49516338 6.65840504 -2.68099266 3.50591348 0 0 Z " fill="#C2C2B0" transform="translate(346,61)"/>
<path d="M0 0 C1.8125 0.125 1.8125 0.125 4 1 C6.28905989 4.67884625 7 6.61551956 7 11 C5.1875 10.875 5.1875 10.875 3 10 C0.71094011 6.32115375 0 4.38448044 0 0 Z " fill="#C2C2B0" transform="translate(306,61)"/>
<path d="M0 0 C0.99 0 1.98 0 3 0 C2.49516338 4.34159496 1.68099266 7.49408652 -1 11 C-1.99 11 -2.98 11 -4 11 C-3.49516338 6.65840504 -2.68099266 3.50591348 0 0 Z " fill="#C2C2B0" transform="translate(274,61)"/>
<path d="M0 0 C0.99 0 1.98 0 3 0 C2.49516338 4.34159496 1.68099266 7.49408652 -1 11 C-1.99 11 -2.98 11 -4 11 C-3.49516338 6.65840504 -2.68099266 3.50591348 0 0 Z " fill="#C2C2B0" transform="translate(238,61)"/>
<path d="M0 0 C1.8125 0.125 1.8125 0.125 4 1 C6.28905989 4.67884625 7 6.61551956 7 11 C5.1875 10.875 5.1875 10.875 3 10 C0.71094011 6.32115375 0 4.38448044 0 0 Z " fill="#C2C2B0" transform="translate(198,61)"/>
<path d="M0 0 C1.8125 0.125 1.8125 0.125 4 1 C6.28905989 4.67884625 7 6.61551956 7 11 C5.1875 10.875 5.1875 10.875 3 10 C0.71094011 6.32115375 0 4.38448044 0 0 Z " fill="#C2C2B0" transform="translate(162,61)"/>
<path d="M0 0 C1.8125 0.125 1.8125 0.125 4 1 C6.28905989 4.67884625 7 6.61551956 7 11 C5.1875 10.875 5.1875 10.875 3 10 C0.71094011 6.32115375 0 4.38448044 0 0 Z " fill="#C2C2B0" transform="translate(666,47)"/>
<path d="M0 0 C0.99 0 1.98 0 3 0 C2.49516338 4.34159496 1.68099266 7.49408652 -1 11 C-1.99 11 -2.98 11 -4 11 C-3.49516338 6.65840504 -2.68099266 3.50591348 0 0 Z " fill="#C2C2B0" transform="translate(454,47)"/>
<path d="M0 0 C0.99 0 1.98 0 3 0 C2.49516338 4.34159496 1.68099266 7.49408652 -1 11 C-1.99 11 -2.98 11 -4 11 C-3.49516338 6.65840504 -2.68099266 3.50591348 0 0 Z " fill="#C2C2B0" transform="translate(274,33)"/>
<path d="M0 0 C0.99 0 1.98 0 3 0 C2.49516338 4.34159496 1.68099266 7.49408652 -1 11 C-1.99 11 -2.98 11 -4 11 C-3.49516338 6.65840504 -2.68099266 3.50591348 0 0 Z " fill="#C2C2B0" transform="translate(58,33)"/>
<path d="M0 0 C3.3 0 6.6 0 10 0 C10 0.99 10 1.98 10 3 C6.7 3 3.4 3 0 3 C0 2.01 0 1.02 0 0 Z " fill="#C2C2B0" transform="translate(636,57)"/>
<path d="M0 0 C2.97 0 5.94 0 9 0 C9 0.99 9 1.98 9 3 C6.03 3 3.06 3 0 3 C0 2.01 0 1.02 0 0 Z " fill="#C2C2B0" transform="translate(622,85)"/>
<path d="M0 0 C2.97 0 5.94 0 9 0 C9 0.99 9 1.98 9 3 C6.03 3 3.06 3 0 3 C0 2.01 0 1.02 0 0 Z " fill="#C2C2B0" transform="translate(89,57)"/>
<path d="M0 0 C1.32 0 2.64 0 4 0 C4 1.32 4 2.64 4 4 C2.68 4 1.36 4 0 4 C0 2.68 0 1.36 0 0 Z " fill="#C2C2B0" transform="translate(675,152)"/>
<path d="M0 0 C1.32 0 2.64 0 4 0 C4 1.32 4 2.64 4 4 C2.68 4 1.36 4 0 4 C0 2.68 0 1.36 0 0 Z " fill="#C2C2B0" transform="translate(567,152)"/>
<path d="M0 0 C1.32 0 2.64 0 4 0 C4 1.32 4 2.64 4 4 C2.68 4 1.36 4 0 4 C0 2.68 0 1.36 0 0 Z " fill="#C2C2B0" transform="translate(387,152)"/>
<path d="M0 0 C1.32 0 2.64 0 4 0 C4 1.32 4 2.64 4 4 C2.68 4 1.36 4 0 4 C0 2.68 0 1.36 0 0 Z " fill="#C2C2B0" transform="translate(178,152)"/>
<path d="M0 0 C1.32 0 2.64 0 4 0 C4 1.32 4 2.64 4 4 C2.68 4 1.36 4 0 4 C0 2.68 0 1.36 0 0 Z " fill="#C2C2B0" transform="translate(675,147)"/>
<path d="M0 0 C1.32 0 2.64 0 4 0 C4 1.32 4 2.64 4 4 C2.68 4 1.36 4 0 4 C0 2.68 0 1.36 0 0 Z " fill="#C2C2B0" transform="translate(567,147)"/>
<path d="M0 0 C1.32 0 2.64 0 4 0 C4 1.32 4 2.64 4 4 C2.68 4 1.36 4 0 4 C0 2.68 0 1.36 0 0 Z " fill="#C2C2B0" transform="translate(387,147)"/>
<path d="M0 0 C1.32 0 2.64 0 4 0 C4 1.32 4 2.64 4 4 C2.68 4 1.36 4 0 4 C0 2.68 0 1.36 0 0 Z " fill="#C2C2B0" transform="translate(178,147)"/>
<path d="M0 0 C1.32 0 2.64 0 4 0 C4 1.32 4 2.64 4 4 C2.68 4 1.36 4 0 4 C0 2.68 0 1.36 0 0 Z " fill="#C2C2B0" transform="translate(682,138)"/>
<path d="M0 0 C1.32 0 2.64 0 4 0 C4 1.32 4 2.64 4 4 C2.68 4 1.36 4 0 4 C0 2.68 0 1.36 0 0 Z " fill="#C2C2B0" transform="translate(394,138)"/>
<path d="M0 0 C1.32 0 2.64 0 4 0 C4 1.32 4 2.64 4 4 C2.68 4 1.36 4 0 4 C0 2.68 0 1.36 0 0 Z " fill="#C2C2B0" transform="translate(286,138)"/>
<path d="M0 0 C1.32 0 2.64 0 4 0 C4 1.32 4 2.64 4 4 C2.68 4 1.36 4 0 4 C0 2.68 0 1.36 0 0 Z " fill="#C2C2B0" transform="translate(279,138)"/>
<path d="M0 0 C1.32 0 2.64 0 4 0 C4 1.32 4 2.64 4 4 C2.68 4 1.36 4 0 4 C0 2.68 0 1.36 0 0 Z " fill="#C2C2B0" transform="translate(171,138)"/>
<path d="M0 0 C1.32 0 2.64 0 4 0 C4 1.32 4 2.64 4 4 C2.68 4 1.36 4 0 4 C0 2.68 0 1.36 0 0 Z " fill="#C2C2B0" transform="translate(682,133)"/>
<path d="M0 0 C1.32 0 2.64 0 4 0 C4 1.32 4 2.64 4 4 C2.68 4 1.36 4 0 4 C0 2.68 0 1.36 0 0 Z " fill="#C2C2B0" transform="translate(394,133)"/>
<path d="M0 0 C1.32 0 2.64 0 4 0 C4 1.32 4 2.64 4 4 C2.68 4 1.36 4 0 4 C0 2.68 0 1.36 0 0 Z " fill="#C2C2B0" transform="translate(286,133)"/>
<path d="M0 0 C1.32 0 2.64 0 4 0 C4 1.32 4 2.64 4 4 C2.68 4 1.36 4 0 4 C0 2.68 0 1.36 0 0 Z " fill="#C2C2B0" transform="translate(279,133)"/>
<path d="M0 0 C1.32 0 2.64 0 4 0 C4 1.32 4 2.64 4 4 C2.68 4 1.36 4 0 4 C0 2.68 0 1.36 0 0 Z " fill="#C2C2B0" transform="translate(171,133)"/>
<path d="M0 0 C1.32 0 2.64 0 4 0 C4 1.32 4 2.64 4 4 C2.68 4 1.36 4 0 4 C0 2.68 0 1.36 0 0 Z " fill="#C2C2B0" transform="translate(682,124)"/>
<path d="M0 0 C1.32 0 2.64 0 4 0 C4 1.32 4 2.64 4 4 C2.68 4 1.36 4 0 4 C0 2.68 0 1.36 0 0 Z " fill="#C2C2B0" transform="translate(466,124)"/>
<path d="M0 0 C1.32 0 2.64 0 4 0 C4 1.32 4 2.64 4 4 C2.68 4 1.36 4 0 4 C0 2.68 0 1.36 0 0 Z " fill="#C2C2B0" transform="translate(99,124)"/>
<path d="M0 0 C1.32 0 2.64 0 4 0 C4 1.32 4 2.64 4 4 C2.68 4 1.36 4 0 4 C0 2.68 0 1.36 0 0 Z " fill="#C2C2B0" transform="translate(70,124)"/>
<path d="M0 0 C1.32 0 2.64 0 4 0 C4 1.32 4 2.64 4 4 C2.68 4 1.36 4 0 4 C0 2.68 0 1.36 0 0 Z " fill="#C2C2B0" transform="translate(63,124)"/>
<path d="M0 0 C1.32 0 2.64 0 4 0 C4 1.32 4 2.64 4 4 C2.68 4 1.36 4 0 4 C0 2.68 0 1.36 0 0 Z " fill="#C2C2B0" transform="translate(682,119)"/>
<path d="M0 0 C1.32 0 2.64 0 4 0 C4 1.32 4 2.64 4 4 C2.68 4 1.36 4 0 4 C0 2.68 0 1.36 0 0 Z " fill="#C2C2B0" transform="translate(466,119)"/>
<path d="M0 0 C1.32 0 2.64 0 4 0 C4 1.32 4 2.64 4 4 C2.68 4 1.36 4 0 4 C0 2.68 0 1.36 0 0 Z " fill="#C2C2B0" transform="translate(99,119)"/>
<path d="M0 0 C1.32 0 2.64 0 4 0 C4 1.32 4 2.64 4 4 C2.68 4 1.36 4 0 4 C0 2.68 0 1.36 0 0 Z " fill="#C2C2B0" transform="translate(70,119)"/>
<path d="M0 0 C1.32 0 2.64 0 4 0 C4 1.32 4 2.64 4 4 C2.68 4 1.36 4 0 4 C0 2.68 0 1.36 0 0 Z " fill="#C2C2B0" transform="translate(63,119)"/>
<path d="M0 0 C1.32 0 2.64 0 4 0 C4 1.32 4 2.64 4 4 C2.68 4 1.36 4 0 4 C0 2.68 0 1.36 0 0 Z " fill="#C2C2B0" transform="translate(675,110)"/>
<path d="M0 0 C1.32 0 2.64 0 4 0 C4 1.32 4 2.64 4 4 C2.68 4 1.36 4 0 4 C0 2.68 0 1.36 0 0 Z " fill="#C2C2B0" transform="translate(646,110)"/>
<path d="M0 0 C1.32 0 2.64 0 4 0 C4 1.32 4 2.64 4 4 C2.68 4 1.36 4 0 4 C0 2.68 0 1.36 0 0 Z " fill="#C2C2B0" transform="translate(574,110)"/>
<path d="M0 0 C1.32 0 2.64 0 4 0 C4 1.32 4 2.64 4 4 C2.68 4 1.36 4 0 4 C0 2.68 0 1.36 0 0 Z " fill="#C2C2B0" transform="translate(567,110)"/>
<path d="M0 0 C1.32 0 2.64 0 4 0 C4 1.32 4 2.64 4 4 C2.68 4 1.36 4 0 4 C0 2.68 0 1.36 0 0 Z " fill="#C2C2B0" transform="translate(459,110)"/>
<path d="M0 0 C1.32 0 2.64 0 4 0 C4 1.32 4 2.64 4 4 C2.68 4 1.36 4 0 4 C0 2.68 0 1.36 0 0 Z " fill="#C2C2B0" transform="translate(358,110)"/>
<path d="M0 0 C1.32 0 2.64 0 4 0 C4 1.32 4 2.64 4 4 C2.68 4 1.36 4 0 4 C0 2.68 0 1.36 0 0 Z " fill="#C2C2B0" transform="translate(207,110)"/>
<path d="M0 0 C1.32 0 2.64 0 4 0 C4 1.32 4 2.64 4 4 C2.68 4 1.36 4 0 4 C0 2.68 0 1.36 0 0 Z " fill="#C2C2B0" transform="translate(106,110)"/>
<path d="M0 0 C1.32 0 2.64 0 4 0 C4 1.32 4 2.64 4 4 C2.68 4 1.36 4 0 4 C0 2.68 0 1.36 0 0 Z " fill="#C2C2B0" transform="translate(77,110)"/>
<path d="M0 0 C1.32 0 2.64 0 4 0 C4 1.32 4 2.64 4 4 C2.68 4 1.36 4 0 4 C0 2.68 0 1.36 0 0 Z " fill="#C2C2B0" transform="translate(675,105)"/>
<path d="M0 0 C1.32 0 2.64 0 4 0 C4 1.32 4 2.64 4 4 C2.68 4 1.36 4 0 4 C0 2.68 0 1.36 0 0 Z " fill="#C2C2B0" transform="translate(646,105)"/>
<path d="M0 0 C1.32 0 2.64 0 4 0 C4 1.32 4 2.64 4 4 C2.68 4 1.36 4 0 4 C0 2.68 0 1.36 0 0 Z " fill="#C2C2B0" transform="translate(574,105)"/>
<path d="M0 0 C1.32 0 2.64 0 4 0 C4 1.32 4 2.64 4 4 C2.68 4 1.36 4 0 4 C0 2.68 0 1.36 0 0 Z " fill="#C2C2B0" transform="translate(567,105)"/>
<path d="M0 0 C1.32 0 2.64 0 4 0 C4 1.32 4 2.64 4 4 C2.68 4 1.36 4 0 4 C0 2.68 0 1.36 0 0 Z " fill="#C2C2B0" transform="translate(459,105)"/>
<path d="M0 0 C1.32 0 2.64 0 4 0 C4 1.32 4 2.64 4 4 C2.68 4 1.36 4 0 4 C0 2.68 0 1.36 0 0 Z " fill="#C2C2B0" transform="translate(358,105)"/>
<path d="M0 0 C1.32 0 2.64 0 4 0 C4 1.32 4 2.64 4 4 C2.68 4 1.36 4 0 4 C0 2.68 0 1.36 0 0 Z " fill="#C2C2B0" transform="translate(207,105)"/>
<path d="M0 0 C1.32 0 2.64 0 4 0 C4 1.32 4 2.64 4 4 C2.68 4 1.36 4 0 4 C0 2.68 0 1.36 0 0 Z " fill="#C2C2B0" transform="translate(106,105)"/>
<path d="M0 0 C1.32 0 2.64 0 4 0 C4 1.32 4 2.64 4 4 C2.68 4 1.36 4 0 4 C0 2.68 0 1.36 0 0 Z " fill="#C2C2B0" transform="translate(77,105)"/>
<path d="M0 0 C1.32 0 2.64 0 4 0 C4 1.32 4 2.64 4 4 C2.68 4 1.36 4 0 4 C0 2.68 0 1.36 0 0 Z " fill="#C2C2B0" transform="translate(567,96)"/>
<path d="M0 0 C1.32 0 2.64 0 4 0 C4 1.32 4 2.64 4 4 C2.68 4 1.36 4 0 4 C0 2.68 0 1.36 0 0 Z " fill="#C2C2B0" transform="translate(459,96)"/>
<path d="M0 0 C1.32 0 2.64 0 4 0 C4 1.32 4 2.64 4 4 C2.68 4 1.36 4 0 4 C0 2.68 0 1.36 0 0 Z " fill="#C2C2B0" transform="translate(358,96)"/>
<path d="M0 0 C1.32 0 2.64 0 4 0 C4 1.32 4 2.64 4 4 C2.68 4 1.36 4 0 4 C0 2.68 0 1.36 0 0 Z " fill="#C2C2B0" transform="translate(207,96)"/>
<path d="M0 0 C1.32 0 2.64 0 4 0 C4 1.32 4 2.64 4 4 C2.68 4 1.36 4 0 4 C0 2.68 0 1.36 0 0 Z " fill="#C2C2B0" transform="translate(106,96)"/>
<path d="M0 0 C1.32 0 2.64 0 4 0 C4 1.32 4 2.64 4 4 C2.68 4 1.36 4 0 4 C0 2.68 0 1.36 0 0 Z " fill="#C2C2B0" transform="translate(567,91)"/>
<path d="M0 0 C1.32 0 2.64 0 4 0 C4 1.32 4 2.64 4 4 C2.68 4 1.36 4 0 4 C0 2.68 0 1.36 0 0 Z " fill="#C2C2B0" transform="translate(459,91)"/>
<path d="M0 0 C1.32 0 2.64 0 4 0 C4 1.32 4 2.64 4 4 C2.68 4 1.36 4 0 4 C0 2.68 0 1.36 0 0 Z " fill="#C2C2B0" transform="translate(358,91)"/>
<path d="M0 0 C1.32 0 2.64 0 4 0 C4 1.32 4 2.64 4 4 C2.68 4 1.36 4 0 4 C0 2.68 0 1.36 0 0 Z " fill="#C2C2B0" transform="translate(207,91)"/>
<path d="M0 0 C1.32 0 2.64 0 4 0 C4 1.32 4 2.64 4 4 C2.68 4 1.36 4 0 4 C0 2.68 0 1.36 0 0 Z " fill="#C2C2B0" transform="translate(106,91)"/>
<path d="M0 0 C1.32 0 2.64 0 4 0 C4 1.32 4 2.64 4 4 C2.68 4 1.36 4 0 4 C0 2.68 0 1.36 0 0 Z " fill="#C2C2B0" transform="translate(567,82)"/>
<path d="M0 0 C1.32 0 2.64 0 4 0 C4 1.32 4 2.64 4 4 C2.68 4 1.36 4 0 4 C0 2.68 0 1.36 0 0 Z " fill="#C2C2B0" transform="translate(495,82)"/>
<path d="M0 0 C1.32 0 2.64 0 4 0 C4 1.32 4 2.64 4 4 C2.68 4 1.36 4 0 4 C0 2.68 0 1.36 0 0 Z " fill="#C2C2B0" transform="translate(466,82)"/>
<path d="M0 0 C1.32 0 2.64 0 4 0 C4 1.32 4 2.64 4 4 C2.68 4 1.36 4 0 4 C0 2.68 0 1.36 0 0 Z " fill="#C2C2B0" transform="translate(99,82)"/>
<path d="M0 0 C1.32 0 2.64 0 4 0 C4 1.32 4 2.64 4 4 C2.68 4 1.36 4 0 4 C0 2.68 0 1.36 0 0 Z " fill="#C2C2B0" transform="translate(63,82)"/>
<path d="M0 0 C1.32 0 2.64 0 4 0 C4 1.32 4 2.64 4 4 C2.68 4 1.36 4 0 4 C0 2.68 0 1.36 0 0 Z " fill="#C2C2B0" transform="translate(567,77)"/>
<path d="M0 0 C1.32 0 2.64 0 4 0 C4 1.32 4 2.64 4 4 C2.68 4 1.36 4 0 4 C0 2.68 0 1.36 0 0 Z " fill="#C2C2B0" transform="translate(495,77)"/>
<path d="M0 0 C1.32 0 2.64 0 4 0 C4 1.32 4 2.64 4 4 C2.68 4 1.36 4 0 4 C0 2.68 0 1.36 0 0 Z " fill="#C2C2B0" transform="translate(466,77)"/>
<path d="M0 0 C1.32 0 2.64 0 4 0 C4 1.32 4 2.64 4 4 C2.68 4 1.36 4 0 4 C0 2.68 0 1.36 0 0 Z " fill="#C2C2B0" transform="translate(99,77)"/>
<path d="M0 0 C1.32 0 2.64 0 4 0 C4 1.32 4 2.64 4 4 C2.68 4 1.36 4 0 4 C0 2.68 0 1.36 0 0 Z " fill="#C2C2B0" transform="translate(63,77)"/>
<path d="M0 0 C1.32 0 2.64 0 4 0 C4 1.32 4 2.64 4 4 C2.68 4 1.36 4 0 4 C0 2.68 0 1.36 0 0 Z " fill="#C2C2B0" transform="translate(682,68)"/>
<path d="M0 0 C1.32 0 2.64 0 4 0 C4 1.32 4 2.64 4 4 C2.68 4 1.36 4 0 4 C0 2.68 0 1.36 0 0 Z " fill="#C2C2B0" transform="translate(567,68)"/>
<path d="M0 0 C1.32 0 2.64 0 4 0 C4 1.32 4 2.64 4 4 C2.68 4 1.36 4 0 4 C0 2.68 0 1.36 0 0 Z " fill="#C2C2B0" transform="translate(495,68)"/>
<path d="M0 0 C1.32 0 2.64 0 4 0 C4 1.32 4 2.64 4 4 C2.68 4 1.36 4 0 4 C0 2.68 0 1.36 0 0 Z " fill="#C2C2B0" transform="translate(394,68)"/>
<path d="M0 0 C1.32 0 2.64 0 4 0 C4 1.32 4 2.64 4 4 C2.68 4 1.36 4 0 4 C0 2.68 0 1.36 0 0 Z " fill="#C2C2B0" transform="translate(70,68)"/>
<path d="M0 0 C1.32 0 2.64 0 4 0 C4 1.32 4 2.64 4 4 C2.68 4 1.36 4 0 4 C0 2.68 0 1.36 0 0 Z " fill="#C2C2B0" transform="translate(682,63)"/>
<path d="M0 0 C1.32 0 2.64 0 4 0 C4 1.32 4 2.64 4 4 C2.68 4 1.36 4 0 4 C0 2.68 0 1.36 0 0 Z " fill="#C2C2B0" transform="translate(567,63)"/>
<path d="M0 0 C1.32 0 2.64 0 4 0 C4 1.32 4 2.64 4 4 C2.68 4 1.36 4 0 4 C0 2.68 0 1.36 0 0 Z " fill="#C2C2B0" transform="translate(495,63)"/>
<path d="M0 0 C1.32 0 2.64 0 4 0 C4 1.32 4 2.64 4 4 C2.68 4 1.36 4 0 4 C0 2.68 0 1.36 0 0 Z " fill="#C2C2B0" transform="translate(394,63)"/>
<path d="M0 0 C1.32 0 2.64 0 4 0 C4 1.32 4 2.64 4 4 C2.68 4 1.36 4 0 4 C0 2.68 0 1.36 0 0 Z " fill="#C2C2B0" transform="translate(70,63)"/>
<path d="M0 0 C1.32 0 2.64 0 4 0 C4 1.32 4 2.64 4 4 C2.68 4 1.36 4 0 4 C0 2.68 0 1.36 0 0 Z " fill="#C2C2B0" transform="translate(675,54)"/>
<path d="M0 0 C1.32 0 2.64 0 4 0 C4 1.32 4 2.64 4 4 C2.68 4 1.36 4 0 4 C0 2.68 0 1.36 0 0 Z " fill="#C2C2B0" transform="translate(567,54)"/>
<path d="M0 0 C1.32 0 2.64 0 4 0 C4 1.32 4 2.64 4 4 C2.68 4 1.36 4 0 4 C0 2.68 0 1.36 0 0 Z " fill="#C2C2B0" transform="translate(387,54)"/>
<path d="M0 0 C1.32 0 2.64 0 4 0 C4 1.32 4 2.64 4 4 C2.68 4 1.36 4 0 4 C0 2.68 0 1.36 0 0 Z " fill="#C2C2B0" transform="translate(77,54)"/>
<path d="M0 0 C1.32 0 2.64 0 4 0 C4 1.32 4 2.64 4 4 C2.68 4 1.36 4 0 4 C0 2.68 0 1.36 0 0 Z " fill="#C2C2B0" transform="translate(675,49)"/>
<path d="M0 0 C1.32 0 2.64 0 4 0 C4 1.32 4 2.64 4 4 C2.68 4 1.36 4 0 4 C0 2.68 0 1.36 0 0 Z " fill="#C2C2B0" transform="translate(567,49)"/>
<path d="M0 0 C1.32 0 2.64 0 4 0 C4 1.32 4 2.64 4 4 C2.68 4 1.36 4 0 4 C0 2.68 0 1.36 0 0 Z " fill="#C2C2B0" transform="translate(387,49)"/>
<path d="M0 0 C1.32 0 2.64 0 4 0 C4 1.32 4 2.64 4 4 C2.68 4 1.36 4 0 4 C0 2.68 0 1.36 0 0 Z " fill="#C2C2B0" transform="translate(77,49)"/>
<path d="M0 0 C1.32 0 2.64 0 4 0 C4 1.32 4 2.64 4 4 C2.68 4 1.36 4 0 4 C0 2.68 0 1.36 0 0 Z " fill="#C2C2B0" transform="translate(286,40)"/>
<path d="M0 0 C1.32 0 2.64 0 4 0 C4 1.32 4 2.64 4 4 C2.68 4 1.36 4 0 4 C0 2.68 0 1.36 0 0 Z " fill="#C2C2B0" transform="translate(279,40)"/>
<path d="M0 0 C1.32 0 2.64 0 4 0 C4 1.32 4 2.64 4 4 C2.68 4 1.36 4 0 4 C0 2.68 0 1.36 0 0 Z " fill="#C2C2B0" transform="translate(286,35)"/>
<path d="M0 0 C1.32 0 2.64 0 4 0 C4 1.32 4 2.64 4 4 C2.68 4 1.36 4 0 4 C0 2.68 0 1.36 0 0 Z " fill="#C2C2B0" transform="translate(279,35)"/>
<path d="M0 0 C0.99 0 1.98 0 3 0 C3 1.32 3 2.64 3 4 C2.01 4 1.02 4 0 4 C0 2.68 0 1.36 0 0 Z " fill="#C2C2B0" transform="translate(669,152)"/>
<path d="M0 0 C0.99 0 1.98 0 3 0 C3 1.32 3 2.64 3 4 C2.01 4 1.02 4 0 4 C0 2.68 0 1.36 0 0 Z " fill="#C2C2B0" transform="translate(482,152)"/>
<path d="M0 0 C0.99 0 1.98 0 3 0 C3 1.32 3 2.64 3 4 C2.01 4 1.02 4 0 4 C0 2.68 0 1.36 0 0 Z " fill="#C2C2B0" transform="translate(381,152)"/>
<path d="M0 0 C0.99 0 1.98 0 3 0 C3 1.32 3 2.64 3 4 C2.01 4 1.02 4 0 4 C0 2.68 0 1.36 0 0 Z " fill="#C2C2B0" transform="translate(185,152)"/>
<path d="M0 0 C0.99 0 1.98 0 3 0 C3 1.32 3 2.64 3 4 C2.01 4 1.02 4 0 4 C0 2.68 0 1.36 0 0 Z " fill="#C2C2B0" transform="translate(84,152)"/>
<path d="M0 0 C0.99 0 1.98 0 3 0 C3 1.32 3 2.64 3 4 C2.01 4 1.02 4 0 4 C0 2.68 0 1.36 0 0 Z " fill="#C2C2B0" transform="translate(669,147)"/>
<path d="M0 0 C0.99 0 1.98 0 3 0 C3 1.32 3 2.64 3 4 C2.01 4 1.02 4 0 4 C0 2.68 0 1.36 0 0 Z " fill="#C2C2B0" transform="translate(482,147)"/>
<path d="M0 0 C0.99 0 1.98 0 3 0 C3 1.32 3 2.64 3 4 C2.01 4 1.02 4 0 4 C0 2.68 0 1.36 0 0 Z " fill="#C2C2B0" transform="translate(381,147)"/>
<path d="M0 0 C0.99 0 1.98 0 3 0 C3 1.32 3 2.64 3 4 C2.01 4 1.02 4 0 4 C0 2.68 0 1.36 0 0 Z " fill="#C2C2B0" transform="translate(185,147)"/>
<path d="M0 0 C0.99 0 1.98 0 3 0 C3 1.32 3 2.64 3 4 C2.01 4 1.02 4 0 4 C0 2.68 0 1.36 0 0 Z " fill="#C2C2B0" transform="translate(84,147)"/>
<path d="M0 0 C0.99 0 1.98 0 3 0 C3 1.32 3 2.64 3 4 C2.01 4 1.02 4 0 4 C0 2.68 0 1.36 0 0 Z " fill="#C2C2B0" transform="translate(662,138)"/>
<path d="M0 0 C0.99 0 1.98 0 3 0 C3 1.32 3 2.64 3 4 C2.01 4 1.02 4 0 4 C0 2.68 0 1.36 0 0 Z " fill="#C2C2B0" transform="translate(561,138)"/>
<path d="M0 0 C0.99 0 1.98 0 3 0 C3 1.32 3 2.64 3 4 C2.01 4 1.02 4 0 4 C0 2.68 0 1.36 0 0 Z " fill="#C2C2B0" transform="translate(473,138)"/>
<path d="M0 0 C0.99 0 1.98 0 3 0 C3 1.32 3 2.64 3 4 C2.01 4 1.02 4 0 4 C0 2.68 0 1.36 0 0 Z " fill="#C2C2B0" transform="translate(372,138)"/>
<path d="M0 0 C0.99 0 1.98 0 3 0 C3 1.32 3 2.64 3 4 C2.01 4 1.02 4 0 4 C0 2.68 0 1.36 0 0 Z " fill="#C2C2B0" transform="translate(192,138)"/>
<path d="M0 0 C0.99 0 1.98 0 3 0 C3 1.32 3 2.64 3 4 C2.01 4 1.02 4 0 4 C0 2.68 0 1.36 0 0 Z " fill="#C2C2B0" transform="translate(93,138)"/>
<path d="M0 0 C0.99 0 1.98 0 3 0 C3 1.32 3 2.64 3 4 C2.01 4 1.02 4 0 4 C0 2.68 0 1.36 0 0 Z " fill="#C2C2B0" transform="translate(662,133)"/>
<path d="M0 0 C0.99 0 1.98 0 3 0 C3 1.32 3 2.64 3 4 C2.01 4 1.02 4 0 4 C0 2.68 0 1.36 0 0 Z " fill="#C2C2B0" transform="translate(561,133)"/>
<path d="M0 0 C0.99 0 1.98 0 3 0 C3 1.32 3 2.64 3 4 C2.01 4 1.02 4 0 4 C0 2.68 0 1.36 0 0 Z " fill="#C2C2B0" transform="translate(473,133)"/>
<path d="M0 0 C0.99 0 1.98 0 3 0 C3 1.32 3 2.64 3 4 C2.01 4 1.02 4 0 4 C0 2.68 0 1.36 0 0 Z " fill="#C2C2B0" transform="translate(372,133)"/>
<path d="M0 0 C0.99 0 1.98 0 3 0 C3 1.32 3 2.64 3 4 C2.01 4 1.02 4 0 4 C0 2.68 0 1.36 0 0 Z " fill="#C2C2B0" transform="translate(192,133)"/>
<path d="M0 0 C0.99 0 1.98 0 3 0 C3 1.32 3 2.64 3 4 C2.01 4 1.02 4 0 4 C0 2.68 0 1.36 0 0 Z " fill="#C2C2B0" transform="translate(93,133)"/>
<path d="M0 0 C0.99 0 1.98 0 3 0 C3 1.32 3 2.64 3 4 C2.01 4 1.02 4 0 4 C0 2.68 0 1.36 0 0 Z " fill="#C2C2B0" transform="translate(689,124)"/>
<path d="M0 0 C0.99 0 1.98 0 3 0 C3 1.32 3 2.64 3 4 C2.01 4 1.02 4 0 4 C0 2.68 0 1.36 0 0 Z " fill="#C2C2B0" transform="translate(653,124)"/>
<path d="M0 0 C0.99 0 1.98 0 3 0 C3 1.32 3 2.64 3 4 C2.01 4 1.02 4 0 4 C0 2.68 0 1.36 0 0 Z " fill="#C2C2B0" transform="translate(561,124)"/>
<path d="M0 0 C0.99 0 1.98 0 3 0 C3 1.32 3 2.64 3 4 C2.01 4 1.02 4 0 4 C0 2.68 0 1.36 0 0 Z " fill="#C2C2B0" transform="translate(554,124)"/>
<path d="M0 0 C0.99 0 1.98 0 3 0 C3 1.32 3 2.64 3 4 C2.01 4 1.02 4 0 4 C0 2.68 0 1.36 0 0 Z " fill="#C2C2B0" transform="translate(473,124)"/>
<path d="M0 0 C0.99 0 1.98 0 3 0 C3 1.32 3 2.64 3 4 C2.01 4 1.02 4 0 4 C0 2.68 0 1.36 0 0 Z " fill="#C2C2B0" transform="translate(401,124)"/>
<path d="M0 0 C0.99 0 1.98 0 3 0 C3 1.32 3 2.64 3 4 C2.01 4 1.02 4 0 4 C0 2.68 0 1.36 0 0 Z " fill="#C2C2B0" transform="translate(365,124)"/>
<path d="M0 0 C0.99 0 1.98 0 3 0 C3 1.32 3 2.64 3 4 C2.01 4 1.02 4 0 4 C0 2.68 0 1.36 0 0 Z " fill="#C2C2B0" transform="translate(293,124)"/>
<path d="M0 0 C0.99 0 1.98 0 3 0 C3 1.32 3 2.64 3 4 C2.01 4 1.02 4 0 4 C0 2.68 0 1.36 0 0 Z " fill="#C2C2B0" transform="translate(273,124)"/>
<path d="M0 0 C0.99 0 1.98 0 3 0 C3 1.32 3 2.64 3 4 C2.01 4 1.02 4 0 4 C0 2.68 0 1.36 0 0 Z " fill="#C2C2B0" transform="translate(201,124)"/>
<path d="M0 0 C0.99 0 1.98 0 3 0 C3 1.32 3 2.64 3 4 C2.01 4 1.02 4 0 4 C0 2.68 0 1.36 0 0 Z " fill="#C2C2B0" transform="translate(165,124)"/>
<path d="M0 0 C0.99 0 1.98 0 3 0 C3 1.32 3 2.64 3 4 C2.01 4 1.02 4 0 4 C0 2.68 0 1.36 0 0 Z " fill="#C2C2B0" transform="translate(689,119)"/>
<path d="M0 0 C0.99 0 1.98 0 3 0 C3 1.32 3 2.64 3 4 C2.01 4 1.02 4 0 4 C0 2.68 0 1.36 0 0 Z " fill="#C2C2B0" transform="translate(653,119)"/>
<path d="M0 0 C0.99 0 1.98 0 3 0 C3 1.32 3 2.64 3 4 C2.01 4 1.02 4 0 4 C0 2.68 0 1.36 0 0 Z " fill="#C2C2B0" transform="translate(561,119)"/>
<path d="M0 0 C0.99 0 1.98 0 3 0 C3 1.32 3 2.64 3 4 C2.01 4 1.02 4 0 4 C0 2.68 0 1.36 0 0 Z " fill="#C2C2B0" transform="translate(554,119)"/>
<path d="M0 0 C0.99 0 1.98 0 3 0 C3 1.32 3 2.64 3 4 C2.01 4 1.02 4 0 4 C0 2.68 0 1.36 0 0 Z " fill="#C2C2B0" transform="translate(473,119)"/>
<path d="M0 0 C0.99 0 1.98 0 3 0 C3 1.32 3 2.64 3 4 C2.01 4 1.02 4 0 4 C0 2.68 0 1.36 0 0 Z " fill="#C2C2B0" transform="translate(401,119)"/>
<path d="M0 0 C0.99 0 1.98 0 3 0 C3 1.32 3 2.64 3 4 C2.01 4 1.02 4 0 4 C0 2.68 0 1.36 0 0 Z " fill="#C2C2B0" transform="translate(365,119)"/>
<path d="M0 0 C0.99 0 1.98 0 3 0 C3 1.32 3 2.64 3 4 C2.01 4 1.02 4 0 4 C0 2.68 0 1.36 0 0 Z " fill="#C2C2B0" transform="translate(293,119)"/>
<path d="M0 0 C0.99 0 1.98 0 3 0 C3 1.32 3 2.64 3 4 C2.01 4 1.02 4 0 4 C0 2.68 0 1.36 0 0 Z " fill="#C2C2B0" transform="translate(273,119)"/>
<path d="M0 0 C0.99 0 1.98 0 3 0 C3 1.32 3 2.64 3 4 C2.01 4 1.02 4 0 4 C0 2.68 0 1.36 0 0 Z " fill="#C2C2B0" transform="translate(201,119)"/>
<path d="M0 0 C0.99 0 1.98 0 3 0 C3 1.32 3 2.64 3 4 C2.01 4 1.02 4 0 4 C0 2.68 0 1.36 0 0 Z " fill="#C2C2B0" transform="translate(165,119)"/>
<path d="M0 0 C0.99 0 1.98 0 3 0 C3 1.32 3 2.64 3 4 C2.01 4 1.02 4 0 4 C0 2.68 0 1.36 0 0 Z " fill="#C2C2B0" transform="translate(698,110)"/>
<path d="M0 0 C0.99 0 1.98 0 3 0 C3 1.32 3 2.64 3 4 C2.01 4 1.02 4 0 4 C0 2.68 0 1.36 0 0 Z " fill="#C2C2B0" transform="translate(597,110)"/>
<path d="M0 0 C0.99 0 1.98 0 3 0 C3 1.32 3 2.64 3 4 C2.01 4 1.02 4 0 4 C0 2.68 0 1.36 0 0 Z " fill="#C2C2B0" transform="translate(590,110)"/>
<path d="M0 0 C0.99 0 1.98 0 3 0 C3 1.32 3 2.64 3 4 C2.01 4 1.02 4 0 4 C0 2.68 0 1.36 0 0 Z " fill="#C2C2B0" transform="translate(581,110)"/>
<path d="M0 0 C0.99 0 1.98 0 3 0 C3 1.32 3 2.64 3 4 C2.01 4 1.02 4 0 4 C0 2.68 0 1.36 0 0 Z " fill="#C2C2B0" transform="translate(545,110)"/>
<path d="M0 0 C0.99 0 1.98 0 3 0 C3 1.32 3 2.64 3 4 C2.01 4 1.02 4 0 4 C0 2.68 0 1.36 0 0 Z " fill="#C2C2B0" transform="translate(482,110)"/>
<path d="M0 0 C0.99 0 1.98 0 3 0 C3 1.32 3 2.64 3 4 C2.01 4 1.02 4 0 4 C0 2.68 0 1.36 0 0 Z " fill="#C2C2B0" transform="translate(408,110)"/>
<path d="M0 0 C0.99 0 1.98 0 3 0 C3 1.32 3 2.64 3 4 C2.01 4 1.02 4 0 4 C0 2.68 0 1.36 0 0 Z " fill="#C2C2B0" transform="translate(300,110)"/>
<path d="M0 0 C0.99 0 1.98 0 3 0 C3 1.32 3 2.64 3 4 C2.01 4 1.02 4 0 4 C0 2.68 0 1.36 0 0 Z " fill="#C2C2B0" transform="translate(264,110)"/>
<path d="M0 0 C0.99 0 1.98 0 3 0 C3 1.32 3 2.64 3 4 C2.01 4 1.02 4 0 4 C0 2.68 0 1.36 0 0 Z " fill="#C2C2B0" transform="translate(156,110)"/>
<path d="M0 0 C0.99 0 1.98 0 3 0 C3 1.32 3 2.64 3 4 C2.01 4 1.02 4 0 4 C0 2.68 0 1.36 0 0 Z " fill="#C2C2B0" transform="translate(57,110)"/>
<path d="M0 0 C0.99 0 1.98 0 3 0 C3 1.32 3 2.64 3 4 C2.01 4 1.02 4 0 4 C0 2.68 0 1.36 0 0 Z " fill="#C2C2B0" transform="translate(698,105)"/>
<path d="M0 0 C0.99 0 1.98 0 3 0 C3 1.32 3 2.64 3 4 C2.01 4 1.02 4 0 4 C0 2.68 0 1.36 0 0 Z " fill="#C2C2B0" transform="translate(597,105)"/>
<path d="M0 0 C0.99 0 1.98 0 3 0 C3 1.32 3 2.64 3 4 C2.01 4 1.02 4 0 4 C0 2.68 0 1.36 0 0 Z " fill="#C2C2B0" transform="translate(590,105)"/>
<path d="M0 0 C0.99 0 1.98 0 3 0 C3 1.32 3 2.64 3 4 C2.01 4 1.02 4 0 4 C0 2.68 0 1.36 0 0 Z " fill="#C2C2B0" transform="translate(581,105)"/>
<path d="M0 0 C0.99 0 1.98 0 3 0 C3 1.32 3 2.64 3 4 C2.01 4 1.02 4 0 4 C0 2.68 0 1.36 0 0 Z " fill="#C2C2B0" transform="translate(545,105)"/>
<path d="M0 0 C0.99 0 1.98 0 3 0 C3 1.32 3 2.64 3 4 C2.01 4 1.02 4 0 4 C0 2.68 0 1.36 0 0 Z " fill="#C2C2B0" transform="translate(482,105)"/>
<path d="M0 0 C0.99 0 1.98 0 3 0 C3 1.32 3 2.64 3 4 C2.01 4 1.02 4 0 4 C0 2.68 0 1.36 0 0 Z " fill="#C2C2B0" transform="translate(408,105)"/>
<path d="M0 0 C0.99 0 1.98 0 3 0 C3 1.32 3 2.64 3 4 C2.01 4 1.02 4 0 4 C0 2.68 0 1.36 0 0 Z " fill="#C2C2B0" transform="translate(300,105)"/>
<path d="M0 0 C0.99 0 1.98 0 3 0 C3 1.32 3 2.64 3 4 C2.01 4 1.02 4 0 4 C0 2.68 0 1.36 0 0 Z " fill="#C2C2B0" transform="translate(264,105)"/>
<path d="M0 0 C0.99 0 1.98 0 3 0 C3 1.32 3 2.64 3 4 C2.01 4 1.02 4 0 4 C0 2.68 0 1.36 0 0 Z " fill="#C2C2B0" transform="translate(156,105)"/>
<path d="M0 0 C0.99 0 1.98 0 3 0 C3 1.32 3 2.64 3 4 C2.01 4 1.02 4 0 4 C0 2.68 0 1.36 0 0 Z " fill="#C2C2B0" transform="translate(57,105)"/>
<path d="M0 0 C0.99 0 1.98 0 3 0 C3 1.32 3 2.64 3 4 C2.01 4 1.02 4 0 4 C0 2.68 0 1.36 0 0 Z " fill="#C2C2B0" transform="translate(698,96)"/>
<path d="M0 0 C0.99 0 1.98 0 3 0 C3 1.32 3 2.64 3 4 C2.01 4 1.02 4 0 4 C0 2.68 0 1.36 0 0 Z " fill="#C2C2B0" transform="translate(669,96)"/>
<path d="M0 0 C0.99 0 1.98 0 3 0 C3 1.32 3 2.64 3 4 C2.01 4 1.02 4 0 4 C0 2.68 0 1.36 0 0 Z " fill="#C2C2B0" transform="translate(489,96)"/>
<path d="M0 0 C0.99 0 1.98 0 3 0 C3 1.32 3 2.64 3 4 C2.01 4 1.02 4 0 4 C0 2.68 0 1.36 0 0 Z " fill="#C2C2B0" transform="translate(408,96)"/>
<path d="M0 0 C0.99 0 1.98 0 3 0 C3 1.32 3 2.64 3 4 C2.01 4 1.02 4 0 4 C0 2.68 0 1.36 0 0 Z " fill="#C2C2B0" transform="translate(309,96)"/>
<path d="M0 0 C0.99 0 1.98 0 3 0 C3 1.32 3 2.64 3 4 C2.01 4 1.02 4 0 4 C0 2.68 0 1.36 0 0 Z " fill="#C2C2B0" transform="translate(257,96)"/>
<path d="M0 0 C0.99 0 1.98 0 3 0 C3 1.32 3 2.64 3 4 C2.01 4 1.02 4 0 4 C0 2.68 0 1.36 0 0 Z " fill="#C2C2B0" transform="translate(84,96)"/>
<path d="M0 0 C0.99 0 1.98 0 3 0 C3 1.32 3 2.64 3 4 C2.01 4 1.02 4 0 4 C0 2.68 0 1.36 0 0 Z " fill="#C2C2B0" transform="translate(57,96)"/>
<path d="M0 0 C0.99 0 1.98 0 3 0 C3 1.32 3 2.64 3 4 C2.01 4 1.02 4 0 4 C0 2.68 0 1.36 0 0 Z " fill="#C2C2B0" transform="translate(698,91)"/>
<path d="M0 0 C0.99 0 1.98 0 3 0 C3 1.32 3 2.64 3 4 C2.01 4 1.02 4 0 4 C0 2.68 0 1.36 0 0 Z " fill="#C2C2B0" transform="translate(669,91)"/>
<path d="M0 0 C0.99 0 1.98 0 3 0 C3 1.32 3 2.64 3 4 C2.01 4 1.02 4 0 4 C0 2.68 0 1.36 0 0 Z " fill="#C2C2B0" transform="translate(489,91)"/>
<path d="M0 0 C0.99 0 1.98 0 3 0 C3 1.32 3 2.64 3 4 C2.01 4 1.02 4 0 4 C0 2.68 0 1.36 0 0 Z " fill="#C2C2B0" transform="translate(408,91)"/>
<path d="M0 0 C0.99 0 1.98 0 3 0 C3 1.32 3 2.64 3 4 C2.01 4 1.02 4 0 4 C0 2.68 0 1.36 0 0 Z " fill="#C2C2B0" transform="translate(309,91)"/>
<path d="M0 0 C0.99 0 1.98 0 3 0 C3 1.32 3 2.64 3 4 C2.01 4 1.02 4 0 4 C0 2.68 0 1.36 0 0 Z " fill="#C2C2B0" transform="translate(257,91)"/>
<path d="M0 0 C0.99 0 1.98 0 3 0 C3 1.32 3 2.64 3 4 C2.01 4 1.02 4 0 4 C0 2.68 0 1.36 0 0 Z " fill="#C2C2B0" transform="translate(84,91)"/>
<path d="M0 0 C0.99 0 1.98 0 3 0 C3 1.32 3 2.64 3 4 C2.01 4 1.02 4 0 4 C0 2.68 0 1.36 0 0 Z " fill="#C2C2B0" transform="translate(57,91)"/>
<path d="M0 0 C0.99 0 1.98 0 3 0 C3 1.32 3 2.64 3 4 C2.01 4 1.02 4 0 4 C0 2.68 0 1.36 0 0 Z " fill="#C2C2B0" transform="translate(689,82)"/>
<path d="M0 0 C0.99 0 1.98 0 3 0 C3 1.32 3 2.64 3 4 C2.01 4 1.02 4 0 4 C0 2.68 0 1.36 0 0 Z " fill="#C2C2B0" transform="translate(662,82)"/>
<path d="M0 0 C0.99 0 1.98 0 3 0 C3 1.32 3 2.64 3 4 C2.01 4 1.02 4 0 4 C0 2.68 0 1.36 0 0 Z " fill="#C2C2B0" transform="translate(401,82)"/>
<path d="M0 0 C0.99 0 1.98 0 3 0 C3 1.32 3 2.64 3 4 C2.01 4 1.02 4 0 4 C0 2.68 0 1.36 0 0 Z " fill="#C2C2B0" transform="translate(365,82)"/>
<path d="M0 0 C0.99 0 1.98 0 3 0 C3 1.32 3 2.64 3 4 C2.01 4 1.02 4 0 4 C0 2.68 0 1.36 0 0 Z " fill="#C2C2B0" transform="translate(309,82)"/>
<path d="M0 0 C0.99 0 1.98 0 3 0 C3 1.32 3 2.64 3 4 C2.01 4 1.02 4 0 4 C0 2.68 0 1.36 0 0 Z " fill="#C2C2B0" transform="translate(257,82)"/>
<path d="M0 0 C0.99 0 1.98 0 3 0 C3 1.32 3 2.64 3 4 C2.01 4 1.02 4 0 4 C0 2.68 0 1.36 0 0 Z " fill="#C2C2B0" transform="translate(201,82)"/>
<path d="M0 0 C0.99 0 1.98 0 3 0 C3 1.32 3 2.64 3 4 C2.01 4 1.02 4 0 4 C0 2.68 0 1.36 0 0 Z " fill="#C2C2B0" transform="translate(93,82)"/>
<path d="M0 0 C0.99 0 1.98 0 3 0 C3 1.32 3 2.64 3 4 C2.01 4 1.02 4 0 4 C0 2.68 0 1.36 0 0 Z " fill="#C2C2B0" transform="translate(689,77)"/>
<path d="M0 0 C0.99 0 1.98 0 3 0 C3 1.32 3 2.64 3 4 C2.01 4 1.02 4 0 4 C0 2.68 0 1.36 0 0 Z " fill="#C2C2B0" transform="translate(662,77)"/>
<path d="M0 0 C0.99 0 1.98 0 3 0 C3 1.32 3 2.64 3 4 C2.01 4 1.02 4 0 4 C0 2.68 0 1.36 0 0 Z " fill="#C2C2B0" transform="translate(401,77)"/>
<path d="M0 0 C0.99 0 1.98 0 3 0 C3 1.32 3 2.64 3 4 C2.01 4 1.02 4 0 4 C0 2.68 0 1.36 0 0 Z " fill="#C2C2B0" transform="translate(365,77)"/>
<path d="M0 0 C0.99 0 1.98 0 3 0 C3 1.32 3 2.64 3 4 C2.01 4 1.02 4 0 4 C0 2.68 0 1.36 0 0 Z " fill="#C2C2B0" transform="translate(309,77)"/>
<path d="M0 0 C0.99 0 1.98 0 3 0 C3 1.32 3 2.64 3 4 C2.01 4 1.02 4 0 4 C0 2.68 0 1.36 0 0 Z " fill="#C2C2B0" transform="translate(257,77)"/>
<path d="M0 0 C0.99 0 1.98 0 3 0 C3 1.32 3 2.64 3 4 C2.01 4 1.02 4 0 4 C0 2.68 0 1.36 0 0 Z " fill="#C2C2B0" transform="translate(201,77)"/>
<path d="M0 0 C0.99 0 1.98 0 3 0 C3 1.32 3 2.64 3 4 C2.01 4 1.02 4 0 4 C0 2.68 0 1.36 0 0 Z " fill="#C2C2B0" transform="translate(93,77)"/>
<path d="M0 0 C0.99 0 1.98 0 3 0 C3 1.32 3 2.64 3 4 C2.01 4 1.02 4 0 4 C0 2.68 0 1.36 0 0 Z " fill="#C2C2B0" transform="translate(473,68)"/>
<path d="M0 0 C0.99 0 1.98 0 3 0 C3 1.32 3 2.64 3 4 C2.01 4 1.02 4 0 4 C0 2.68 0 1.36 0 0 Z " fill="#C2C2B0" transform="translate(372,68)"/>
<path d="M0 0 C0.99 0 1.98 0 3 0 C3 1.32 3 2.64 3 4 C2.01 4 1.02 4 0 4 C0 2.68 0 1.36 0 0 Z " fill="#C2C2B0" transform="translate(300,68)"/>
<path d="M0 0 C0.99 0 1.98 0 3 0 C3 1.32 3 2.64 3 4 C2.01 4 1.02 4 0 4 C0 2.68 0 1.36 0 0 Z " fill="#C2C2B0" transform="translate(264,68)"/>
<path d="M0 0 C0.99 0 1.98 0 3 0 C3 1.32 3 2.64 3 4 C2.01 4 1.02 4 0 4 C0 2.68 0 1.36 0 0 Z " fill="#C2C2B0" transform="translate(192,68)"/>
<path d="M0 0 C0.99 0 1.98 0 3 0 C3 1.32 3 2.64 3 4 C2.01 4 1.02 4 0 4 C0 2.68 0 1.36 0 0 Z " fill="#C2C2B0" transform="translate(473,63)"/>
<path d="M0 0 C0.99 0 1.98 0 3 0 C3 1.32 3 2.64 3 4 C2.01 4 1.02 4 0 4 C0 2.68 0 1.36 0 0 Z " fill="#C2C2B0" transform="translate(372,63)"/>
<path d="M0 0 C0.99 0 1.98 0 3 0 C3 1.32 3 2.64 3 4 C2.01 4 1.02 4 0 4 C0 2.68 0 1.36 0 0 Z " fill="#C2C2B0" transform="translate(300,63)"/>
<path d="M0 0 C0.99 0 1.98 0 3 0 C3 1.32 3 2.64 3 4 C2.01 4 1.02 4 0 4 C0 2.68 0 1.36 0 0 Z " fill="#C2C2B0" transform="translate(264,63)"/>
<path d="M0 0 C0.99 0 1.98 0 3 0 C3 1.32 3 2.64 3 4 C2.01 4 1.02 4 0 4 C0 2.68 0 1.36 0 0 Z " fill="#C2C2B0" transform="translate(192,63)"/>
<path d="M0 0 C0.99 0 1.98 0 3 0 C3 1.32 3 2.64 3 4 C2.01 4 1.02 4 0 4 C0 2.68 0 1.36 0 0 Z " fill="#C2C2B0" transform="translate(489,54)"/>
<path d="M0 0 C0.99 0 1.98 0 3 0 C3 1.32 3 2.64 3 4 C2.01 4 1.02 4 0 4 C0 2.68 0 1.36 0 0 Z " fill="#C2C2B0" transform="translate(482,54)"/>
<path d="M0 0 C0.99 0 1.98 0 3 0 C3 1.32 3 2.64 3 4 C2.01 4 1.02 4 0 4 C0 2.68 0 1.36 0 0 Z " fill="#C2C2B0" transform="translate(381,54)"/>
<path d="M0 0 C0.99 0 1.98 0 3 0 C3 1.32 3 2.64 3 4 C2.01 4 1.02 4 0 4 C0 2.68 0 1.36 0 0 Z " fill="#C2C2B0" transform="translate(293,54)"/>
<path d="M0 0 C0.99 0 1.98 0 3 0 C3 1.32 3 2.64 3 4 C2.01 4 1.02 4 0 4 C0 2.68 0 1.36 0 0 Z " fill="#C2C2B0" transform="translate(273,54)"/>
<path d="M0 0 C0.99 0 1.98 0 3 0 C3 1.32 3 2.64 3 4 C2.01 4 1.02 4 0 4 C0 2.68 0 1.36 0 0 Z " fill="#C2C2B0" transform="translate(185,54)"/>
<path d="M0 0 C0.99 0 1.98 0 3 0 C3 1.32 3 2.64 3 4 C2.01 4 1.02 4 0 4 C0 2.68 0 1.36 0 0 Z " fill="#C2C2B0" transform="translate(489,49)"/>
<path d="M0 0 C0.99 0 1.98 0 3 0 C3 1.32 3 2.64 3 4 C2.01 4 1.02 4 0 4 C0 2.68 0 1.36 0 0 Z " fill="#C2C2B0" transform="translate(482,49)"/>
<path d="M0 0 C0.99 0 1.98 0 3 0 C3 1.32 3 2.64 3 4 C2.01 4 1.02 4 0 4 C0 2.68 0 1.36 0 0 Z " fill="#C2C2B0" transform="translate(381,49)"/>
<path d="M0 0 C0.99 0 1.98 0 3 0 C3 1.32 3 2.64 3 4 C2.01 4 1.02 4 0 4 C0 2.68 0 1.36 0 0 Z " fill="#C2C2B0" transform="translate(293,49)"/>
<path d="M0 0 C0.99 0 1.98 0 3 0 C3 1.32 3 2.64 3 4 C2.01 4 1.02 4 0 4 C0 2.68 0 1.36 0 0 Z " fill="#C2C2B0" transform="translate(273,49)"/>
<path d="M0 0 C0.99 0 1.98 0 3 0 C3 1.32 3 2.64 3 4 C2.01 4 1.02 4 0 4 C0 2.68 0 1.36 0 0 Z " fill="#C2C2B0" transform="translate(185,49)"/>
</svg>
