<?xml version="1.0" encoding="UTF-8"?>
<svg version="1.1" xmlns="http://www.w3.org/2000/svg" width="394" height="394">
<path d="M0 0 C6.52029994 6.16899068 11.26472043 13.63156897 11.94182968 22.7299881 C12.02396539 25.85429492 12.0430773 28.97323441 12.04052734 32.09863281 C12.04724457 33.28477173 12.05396179 34.47091064 12.06088257 35.69299316 C12.0765697 38.92825444 12.08323394 42.16336121 12.08451414 45.39865589 C12.08593969 47.42107292 12.09021661 49.44346333 12.09550858 51.46587372 C12.11397138 58.52381594 12.12218277 65.58168286 12.12060547 72.63964844 C12.11940089 79.21717429 12.14057436 85.79437371 12.1720928 92.37181687 C12.1982189 98.02547697 12.20897452 103.67903006 12.20769465 109.33275008 C12.20718449 112.70701982 12.21289879 116.0809983 12.23405075 119.45520782 C12.2535539 123.21162979 12.24793523 126.96719835 12.23583984 130.72363281 C12.24707886 131.84263977 12.25831787 132.96164673 12.26989746 134.11456299 C12.26150848 135.13509766 12.25311951 136.15563232 12.24447632 137.20709229 C12.24556585 138.09490513 12.24665539 138.98271797 12.24777794 139.89743423 C11.75 142.15234375 11.75 142.15234375 9.93369484 143.926754 C6.84874012 145.65817215 3.76856975 145.76606717 0.3125 146.02734375 C-16.26630812 147.72904187 -29.46123859 155.54129634 -40.25 168.15234375 C-49.89708914 181.40903417 -52.52733872 196.08989638 -51.25 212.15234375 C-49.72490064 220.37045059 -46.3229494 231.07939435 -40.25 237.15234375 C-39.78170732 243.47429497 -39.78170732 243.47429497 -41.375 245.78125 C-43.97602362 247.68324852 -46.3450668 248.08457741 -49.5 248.71484375 C-51.14742188 249.05708984 -51.14742188 249.05708984 -52.828125 249.40625 C-54.30041116 249.66466304 -55.77471781 249.91162344 -57.25 250.15234375 C-58.30437256 250.32515869 -59.35874512 250.49797363 -60.44506836 250.67602539 C-70.4423908 252.1689891 -80.22099625 252.51217969 -90.3125 252.46484375 C-91.52664581 252.46210953 -91.52664581 252.46210953 -92.76531982 252.45932007 C-105.77477 252.41014015 -118.47773483 251.8240931 -131.25 249.15234375 C-132.07048828 248.9807373 -132.89097656 248.80913086 -133.73632812 248.63232422 C-155.50752446 243.87040696 -178.51597044 234.80574402 -191.09375 215.390625 C-193.82698279 210.09960342 -194.54321351 205.24919794 -194.51742554 199.36090088 C-194.52195665 198.59512214 -194.52648776 197.82934341 -194.53115618 197.04035926 C-194.54377747 194.48420093 -194.54218129 191.92825628 -194.54052734 189.37207031 C-194.54651407 187.53521451 -194.55331995 185.69836122 -194.56088257 183.86151123 C-194.57853648 178.87786947 -194.58323774 173.89429642 -194.58451414 168.91062641 C-194.5859368 165.79449311 -194.59020862 162.67837721 -194.59550858 159.56224823 C-194.61400784 148.68374017 -194.62217944 137.80528108 -194.62060547 126.92675781 C-194.61940456 116.79863867 -194.6404973 106.67073281 -194.6720928 96.54266763 C-194.69827799 87.83756901 -194.7089718 79.13253994 -194.70769465 70.42740226 C-194.70718562 65.23255396 -194.71283626 60.03789519 -194.73405075 54.84308624 C-194.75347053 49.95431597 -194.75353202 45.06591525 -194.73901749 40.17713165 C-194.73693283 38.38815773 -194.74160972 36.59916046 -194.7537384 34.81022644 C-194.83945432 21.2858081 -193.41830815 11.57974536 -183.86791992 1.50317383 C-142.25532387 -40.60777667 -43.60104481 -35.8043302 0 0 Z M-174.59765625 10.34375 C-179.17194328 15.35059373 -181.99801156 20.11605475 -182.375 26.99609375 C-181.95976785 34.15884835 -177.20822528 39.41864188 -172.25 44.15234375 C-145.04269071 66.46422023 -104.85599413 69.41769264 -71.23388672 66.13867188 C-48.29778037 63.632175 -20.9841585 57.3326958 -5.25 39.15234375 C-2.00163009 34.56555862 0.17311781 30.24107567 -0.0625 24.52734375 C-1.05099785 19.36720361 -3.72169142 15.92838464 -7.25 12.15234375 C-8.15878906 11.16427734 -8.15878906 11.16427734 -9.0859375 10.15625 C-31.61660451 -11.98595724 -69.24089467 -14.31159637 -98.80859375 -14.06640625 C-124.14068484 -13.54935885 -155.63612526 -7.65567371 -174.59765625 10.34375 Z M-182.25 53.15234375 C-182.37478566 57.81126428 -182.46488741 62.46918556 -182.5246582 67.12939453 C-182.54960626 68.71029634 -182.58357805 70.29108517 -182.62719727 71.87158203 C-182.92557702 82.97130892 -182.33286997 90.84958498 -175.1015625 99.81640625 C-155.61636194 116.97705657 -127.40664695 124.20116311 -101.82421875 124.35546875 C-101.04322311 124.36252838 -100.26222748 124.36958801 -99.45756531 124.37686157 C-76.16655844 124.75135285 -76.16655844 124.75135285 -53.25 121.15234375 C-52.44546387 120.95366699 -51.64092773 120.75499023 -50.81201172 120.55029297 C-32.83412848 115.98312377 -12.27748452 108.91961294 -2.25 92.15234375 C-0.10729612 87.85757921 0.01295569 83.93093186 -0.0546875 79.2265625 C-0.0575174 78.47897171 -0.06034729 77.73138092 -0.06326294 76.96113586 C-0.07440531 74.58720495 -0.09949838 72.2136595 -0.125 69.83984375 C-0.13503751 68.22461485 -0.14416201 66.60937999 -0.15234375 64.99414062 C-0.17432511 61.04672781 -0.20881343 57.09960101 -0.25 53.15234375 C-3.40918321 54.69511358 -6.2617429 56.44890593 -9.1875 58.40234375 C-26.80272434 69.59728238 -46.69769582 74.70343402 -67.25 77.15234375 C-68.32894531 77.28382813 -69.40789062 77.4153125 -70.51953125 77.55078125 C-106.94949179 81.08396222 -149.63261776 77.25660944 -179.6328125 54.3671875 C-181.04614657 53.05224078 -181.04614657 53.05224078 -182.25 53.15234375 Z M-4.8125 113.15234375 C-35.65613194 137.29933928 -81.9783208 138.62787773 -119.10107422 134.55908203 C-140.39530784 131.8085631 -163.87082058 125.76080107 -180.25 111.15234375 C-180.91 111.15234375 -181.57 111.15234375 -182.25 111.15234375 C-182.37478566 115.81126428 -182.46488741 120.46918556 -182.5246582 125.12939453 C-182.54960626 126.71029634 -182.58357805 128.29108517 -182.62719727 129.87158203 C-182.92138317 140.81529783 -182.44269442 148.82343597 -175.21484375 157.6328125 C-152.5501562 176.71656676 -122.2627871 182.58215679 -93.30615234 182.41308594 C-91.11918666 182.40231512 -88.93303569 182.41308634 -86.74609375 182.42578125 C-72.25611439 183.32129473 -72.25611439 183.32129473 -59.63818359 178.66552734 C-58.47179627 176.71841722 -57.72681631 174.86353139 -57 172.71484375 C-56.39141169 171.2543954 -55.77146908 169.79863001 -55.140625 168.34765625 C-54.83576172 167.63254883 -54.53089844 166.91744141 -54.21679688 166.18066406 C-47.98138846 153.09890319 -34.24182312 143.31991764 -21.234375 137.89453125 C-14.34142508 135.4585411 -7.47764467 134.18486442 -0.25 133.15234375 C-0.25 125.56234375 -0.25 117.97234375 -0.25 110.15234375 C-2.08886098 110.15234375 -3.47597392 112.01616977 -4.8125 113.15234375 Z M-182.25 168.15234375 C-182.34951569 172.99033736 -182.42177037 177.827724 -182.46972656 182.66650391 C-182.48973571 184.30951325 -182.51695213 185.95245234 -182.55175781 187.59521484 C-182.60075305 189.96860163 -182.62307504 192.34104024 -182.640625 194.71484375 C-182.66127014 195.43913574 -182.68191528 196.16342773 -182.70318604 196.90966797 C-182.70632159 204.17578595 -179.67510417 210.25840235 -174.828125 215.66015625 C-159.17755517 230.45846732 -135.98504084 236.25919864 -115.25 239.15234375 C-114.58959717 239.24805664 -113.92919434 239.34376953 -113.2487793 239.44238281 C-94.45444518 241.87138998 -74.79053727 240.81682641 -56.25 237.15234375 C-56.75660156 235.90130859 -56.75660156 235.90130859 -57.2734375 234.625 C-57.71945313 233.49964844 -58.16546875 232.37429688 -58.625 231.21484375 C-59.06585938 230.11269531 -59.50671875 229.01054687 -59.9609375 227.875 C-62.755385 219.80497433 -63.60460807 212.10155639 -63.875 203.58984375 C-63.91367188 202.58115234 -63.95234375 201.57246094 -63.9921875 200.53320312 C-64.08546203 198.07308735 -64.17125516 195.61296009 -64.25 193.15234375 C-66.22069458 193.17590942 -66.22069458 193.17590942 -68.23120117 193.19995117 C-73.21306971 193.25519642 -78.19491269 193.28902939 -83.17700195 193.31713867 C-85.31311631 193.3320139 -87.44920135 193.35232033 -89.58520508 193.37866211 C-107.74216641 193.59659692 -125.71442647 192.73499993 -143.1875 187.33984375 C-144.05173584 187.08122559 -144.91597168 186.82260742 -145.80639648 186.55615234 C-158.14987945 182.76292938 -168.73414636 177.67092509 -179.25 170.15234375 C-180.24 169.49234375 -181.23 168.83234375 -182.25 168.15234375 Z " fill="#C2C2B0" transform="translate(226.25,63.84765625)"/>
<path d="M0 0 C6.38014172 4.81237186 9.80824656 12.03917343 11.078125 19.81640625 C11.27168166 24.03073663 11.26393507 28.24317128 11.26342773 32.46166992 C11.26559984 34.4805252 11.28374301 36.49882033 11.30273438 38.51757812 C11.31274556 45.24175459 11.10286188 51.36070756 9.22216797 57.84375 C8.85893157 59.92325046 8.85893157 59.92325046 10.390625 61.65087891 C11.47389563 62.63617344 12.58132379 63.59554258 13.7109375 64.52734375 C15.078125 65.81640625 15.078125 65.81640625 15.390625 68.25390625 C13.04334071 72.83669939 9.57330627 77.00547234 4.578125 78.62890625 C1.80328256 77.72708246 0.77979225 76.68962163 -1.296875 74.69140625 C-3.05147368 73.00727981 -3.05147368 73.00727981 -4.921875 71.81640625 C-7.80765412 72.30855618 -7.80765412 72.30855618 -9.72265625 73.14453125 C-17.5837375 75.54614044 -26.9628957 74.40375894 -34.4453125 71.26953125 C-40.96316965 67.44517343 -45.13167328 61.86747426 -47.35058594 54.71362305 C-48.49536046 48.90805073 -48.3623691 43.00077839 -48.31298828 37.10546875 C-48.29690739 34.82100715 -48.31289639 32.53831411 -48.33203125 30.25390625 C-48.35027865 18.90688575 -47.41902858 10.22962648 -39.26953125 1.76953125 C-28.87111157 -6.88140026 -11.3268225 -6.97566508 0 0 Z M-27.734375 15.06640625 C-31.66516071 20.85914308 -31.25701274 28.04860809 -31.234375 34.75390625 C-31.25048828 35.70458984 -31.26660156 36.65527344 -31.28320312 37.63476562 C-31.28811142 44.75670087 -30.66265346 50.93137629 -25.546875 56.31640625 C-22.69252818 57.94746157 -21.15077593 58.1854235 -17.921875 57.81640625 C-18.23125 56.80578125 -18.540625 55.79515625 -18.859375 54.75390625 C-18.92885367 50.37675034 -18.64837525 49.89669269 -15.796875 46.87890625 C-13.33071156 44.66429148 -12.38465427 43.87676876 -9.046875 43.44140625 C-8.345625 43.56515625 -7.644375 43.68890625 -6.921875 43.81640625 C-4.99020235 41.8847336 -5.7471483 38.43612071 -5.734375 35.87890625 C-5.75912452 28.44167615 -5.90037838 21.41017802 -9.609375 14.81640625 C-15.87679467 9.39593519 -21.28023875 10.6152778 -27.734375 15.06640625 Z " fill="#C2C2B0" transform="translate(308.921875,231.18359375)"/>
<path d="M0 0 C-0.30276876 6.05537521 -3.27754038 9.51483458 -7 14 C-10.4797021 13.57564608 -13.20622838 12.91000943 -16.4375 11.5 C-21.30171434 9.45190975 -25.09602652 8.64075972 -30.3125 9.625 C-33.15138539 10.78031154 -33.15138539 10.78031154 -34.4375 13.375 C-35.02378361 16.11099018 -34.76441135 17.3775669 -34 20 C-32.82824219 20.24234375 -31.65648437 20.4846875 -30.44921875 20.734375 C-5.72738532 25.95102945 -5.72738532 25.95102945 -0.12109375 33.12109375 C3.88231292 39.83063594 4.22722149 47.62131829 2.5 55.19140625 C0.05350148 61.40495647 -3.53633841 65.55851674 -9.5 68.3125 C-20.58166245 72.93636268 -33.91203714 72.20455551 -45 68 C-48.91645012 66.2991789 -52.44732322 64.36845119 -56 62 C-55.90112344 57.15504841 -55.12017097 54.62095258 -51.8125 51 C-49.36293604 48.79836762 -48.52124044 48.04633248 -45.1875 47.75 C-41.46807041 49.20859984 -37.99963969 51.01812249 -34.44921875 52.84375 C-30.46275808 54.72571548 -27.10824992 55.59329511 -22.79296875 54.37890625 C-20.83268849 53.66139561 -18.91167805 52.83845528 -17 52 C-16.67 49.69 -16.34 47.38 -16 45 C-20.2885634 40.82925427 -26.08331873 40.64698043 -31.73828125 39.71484375 C-40.5760647 38.07614222 -46.75595449 34.30988163 -52 27 C-54.18014644 20.45956067 -54.32888509 10.8429931 -51.5 4.4375 C-48.25534175 -0.82503759 -43.45773143 -4.14980483 -37.69140625 -6.14453125 C-24.3347026 -9.23989432 -11.78872808 -6.45043612 0 0 Z " fill="#C2C2B0" transform="translate(250,234)"/>
<path d="M0 0 C5.61 0 11.22 0 17 0 C17.33 19.47 17.66 38.94 18 59 C29.22 59.33 40.44 59.66 52 60 C52 65.28 52 70.56 52 76 C34.84 76 17.68 76 0 76 C0 50.92 0 25.84 0 0 Z " fill="#C2C2B0" transform="translate(331,228)"/>
<path d="M0 0 C5.57018951 0.12197495 10.84499413 1.84537314 16.1640625 3.359375 C19.14629096 4.18954566 22.0926277 4.89156284 25.125 5.5 C28.8125 6.375 28.8125 6.375 30.8125 8.375 C31.11328125 10.25 31.11328125 10.25 31.125 12.375 C31.14175781 13.07625 31.15851563 13.7775 31.17578125 14.5 C31.05589844 15.11875 30.93601563 15.7375 30.8125 16.375 C26.59526033 19.18649311 23.29144428 18.80755753 18.35839844 17.94677734 C15.62097485 17.36768755 12.90546356 16.7267642 10.1875 16.0625 C9.259375 15.84916016 8.33125 15.63582031 7.375 15.41601562 C-1.83314832 13.20632387 -1.83314832 13.20632387 -5.1875 10.375 C-5.9998285 7.50628745 -5.52460103 5.4089093 -5.1875 2.375 C-3.1875 0.375 -3.1875 0.375 0 0 Z " fill="#C2C2B0" transform="translate(78.1875,208.625)"/>
<path d="M0 0 C5.84431821 0.15053147 11.39281121 1.71939238 17.0234375 3.1796875 C18.11527344 3.44910156 19.20710938 3.71851563 20.33203125 3.99609375 C28.38569352 6.04194352 28.38569352 6.04194352 30.6484375 8.3046875 C30.94921875 10.1796875 30.94921875 10.1796875 30.9609375 12.3046875 C30.97769531 13.0059375 30.99445313 13.7071875 31.01171875 14.4296875 C30.89183594 15.0484375 30.77195313 15.6671875 30.6484375 16.3046875 C25.98511111 19.41357176 22.02951076 18.22882834 16.6484375 17.3046875 C13.29608696 16.56238131 9.97125697 15.73148474 6.6484375 14.8671875 C5.39256836 14.5412561 5.39256836 14.5412561 4.11132812 14.20874023 C0.44741532 13.21636841 -2.14954922 12.43936302 -5.3515625 10.3046875 C-5.71484375 8.4296875 -5.71484375 8.4296875 -5.6640625 6.3046875 C-5.65826172 5.2528125 -5.65826172 5.2528125 -5.65234375 4.1796875 C-5.06636731 0.52684736 -3.46338286 0.31485299 0 0 Z " fill="#C2C2B0" transform="translate(78.3515625,266.6953125)"/>
<path d="M0 0 C2.7506717 0.60186398 5.4870606 1.24776016 8.22363281 1.91064453 C9.62742187 2.23645508 9.62742187 2.23645508 11.05957031 2.56884766 C11.95675781 2.78347656 12.85394531 2.99810547 13.77832031 3.21923828 C14.9885083 3.5081897 14.9885083 3.5081897 16.22314453 3.80297852 C18.34863281 4.47314453 18.34863281 4.47314453 21.34863281 6.47314453 C21.71191406 8.34814453 21.71191406 8.34814453 21.66113281 10.47314453 C21.65726563 11.17439453 21.65339844 11.87564453 21.64941406 12.59814453 C21.34863281 14.47314453 21.34863281 14.47314453 19.34863281 16.47314453 C13.18717139 17.12171942 7.69949158 16.04719366 1.72363281 14.66064453 C0.64940063 14.41290283 0.64940063 14.41290283 -0.4465332 14.16015625 C-11.72780582 11.3967059 -11.72780582 11.3967059 -14.65136719 8.47314453 C-15.02222811 2.63208493 -15.02222811 2.63208493 -14.65136719 0.47314453 C-9.88673332 -2.70327805 -5.42142449 -1.07729595 0 0 Z " fill="#C2C2B0" transform="translate(87.6513671875,152.52685546875)"/>
</svg>
